<?xml version="1.0" encoding="UTF-8"?>
<svg version="1.1" xmlns="http://www.w3.org/2000/svg" width="512" height="512">
<path d="M0 0 C1.05356689 0.75047607 1.05356689 0.75047607 2.12841797 1.51611328 C10.34220074 7.40799204 18.07489653 13.61093059 25.4140625 20.5625 C27.52266851 22.5500682 29.6618172 24.44483519 31.875 26.3125 C40.89435418 34.14061872 49.32044486 42.86313056 57 52 C57.93234327 53.08180814 58.86607286 54.16242222 59.80078125 55.2421875 C65.00368119 61.26214638 70.09634551 67.3311387 75.01171875 73.58984375 C77.2123563 76.25741422 79.55908739 78.74006226 81.9375 81.25 C100.21091496 101.20501757 108.12373146 125.02430986 107.375 151.83984375 C106.57119006 168.43600706 99.61835956 184.12417075 89.0546875 196.88671875 C87.70579817 199.00559327 87.70579817 199.00559327 88.66796875 201.5 C89.89078944 203.79503004 91.12134701 206.0697097 92.4375 208.3125 C100.23158745 222.15332787 100.99621389 237.76572568 96.97460938 252.98876953 C89.6226033 277.94528848 70.67666693 298.36524698 49 312 C48.39639648 312.38349609 47.79279297 312.76699219 47.17089844 313.16210938 C32.82785138 322.12369922 16.6083949 328.69895257 0 332 C0.46253728 336.23992503 1.0347505 340.297346 2.0625 344.4375 C3.39096477 350.27469367 3.85398702 355.53292638 1.875 361.25 C-0.9747947 365.4296989 -4.10592971 368.36864324 -9 370 C-10.38953457 370.10508124 -11.7833802 370.15836805 -13.17675781 370.17700195 C-14.01482971 370.18983719 -14.85290161 370.20267242 -15.71636963 370.21589661 C-17.07106354 370.22697701 -17.07106354 370.22697701 -18.453125 370.23828125 C-19.38670837 370.246353 -20.32029175 370.25442474 -21.28216553 370.26274109 C-23.25921782 370.27657233 -25.23629389 370.28729878 -27.21337891 370.29516602 C-30.22474927 370.31235586 -33.23501501 370.35624787 -36.24609375 370.40039062 C-38.16926278 370.41052006 -40.09244112 370.41903538 -42.015625 370.42578125 C-42.91065735 370.44328934 -43.8056897 370.46079742 -44.72784424 370.47883606 C-51.64284657 370.45505474 -55.66429299 368.88730592 -60.96875 364.29589844 C-61.4740625 363.7393457 -61.979375 363.18279297 -62.5 362.609375 C-63.35984497 361.67508667 -63.35984497 361.67508667 -64.23706055 360.72192383 C-65.10971558 359.74582153 -65.10971558 359.74582153 -66 358.75 C-66.61593018 358.07541748 -67.23186035 357.40083496 -67.86645508 356.70581055 C-71.37147863 352.85488733 -74.83384149 348.96649811 -78.23046875 345.01953125 C-80.60884497 342.3051372 -83.05512354 339.65430875 -85.5 337 C-88.57822523 333.65631219 -91.64083581 330.30331886 -94.625 326.875 C-95.15867187 326.26269531 -95.69234375 325.65039062 -96.2421875 325.01953125 C-97.603214 323.45586303 -98.96218697 321.89040728 -100.3203125 320.32421875 C-101.12210937 319.41285156 -101.92390625 318.50148438 -102.75 317.5625 C-103.85601562 316.29599609 -103.85601562 316.29599609 -104.984375 315.00390625 C-108.32129854 311.68638343 -111.7786957 311.79112363 -116.30883789 311.4050293 C-128.9536094 310.30639532 -142.28754692 308.35346355 -153 301 C-153.65742188 300.19949219 -154.31484375 299.39898437 -154.9921875 298.57421875 C-157.56469875 295.46930132 -159.33320756 293.75551372 -163 292 C-170.06724259 291.69081673 -177.12960132 293.34640348 -184.06201172 294.55175781 C-206.72280493 298.00906347 -229.83046313 292.17674884 -248.4921875 279.27734375 C-258.10721499 272.17128808 -264.41434446 262.79634928 -271 253 C-271.74121094 253.31453125 -272.48242188 253.6290625 -273.24609375 253.953125 C-295.73100038 263.09019844 -319.96866801 266.30632566 -342.9296875 256.78515625 C-356.65853096 250.07630215 -367.32444112 237.55872068 -375.1875 224.78125 C-376.95798731 222.06446775 -378.86602248 219.61724639 -380.9375 217.125 C-400.3290135 193.35355005 -406.5881519 167.19219567 -405 137 C-402.33249849 112.74091718 -388.48738565 89.51637219 -373 71.25 C-369.41789437 66.87666621 -366.79539212 62.20554734 -364.125 57.25 C-346.05211704 23.80219555 -317.36932965 1.88556586 -281.29296875 -9.4921875 C-276.40883644 -10.94862455 -271.50824588 -11.95596431 -266.5 -12.875 C-257.46817197 -14.54948243 -249.60069393 -17.94832396 -241.25390625 -21.6953125 C-162.00949251 -57.08090667 -70.95814826 -50.80689165 0 0 Z " fill="#FB929F" transform="translate(405,93)"/>
<path d="M0 0 C4.58703523 2.29847122 7.23557502 5.59295749 8.87109375 10.34375 C9.44596014 15.27117618 8.81507053 18.75682577 7.37109375 23.46875 C3.5732229 36.41030989 5.93772986 48.5649239 11.87109375 60.34375 C16.46054509 68.53919882 23.79190023 74.76473271 32.87109375 77.34375 C36.69349208 77.94175735 40.46785944 78.39786438 44.3203125 78.75390625 C51.30239131 79.91374553 54.87183024 82.81535633 58.87109375 88.34375 C58.87109375 89.00375 58.87109375 89.66375 58.87109375 90.34375 C59.94359375 90.570625 61.01609375 90.7975 62.12109375 91.03125 C73.07463511 93.84082387 82.87615697 99.32304156 92.7487793 104.68530273 C93.62574463 105.15653564 94.50270996 105.62776855 95.40625 106.11328125 C96.19394775 106.54229736 96.98164551 106.97131348 97.79321289 107.41333008 C99.94798734 108.54808703 99.94798734 108.54808703 102.87109375 108.34375 C104.55926308 106.69886706 106.2246269 105.03037458 107.87109375 103.34375 C111.48902062 100.72387192 115.5704288 100.72046522 119.87109375 101.34375 C124.21653549 102.72925316 127.16318307 104.54017571 130.18359375 107.96875 C133.70773435 115.01703121 135.30809868 121.47766118 134.87109375 129.34375 C135.68449219 129.59125 136.49789062 129.83875 137.3359375 130.09375 C140.70130815 131.28371531 143.82124566 132.68593654 147.04003906 134.21313477 C160.90695476 140.7632864 175.33149892 145.5370847 189.87109375 150.34375 C189.79181641 148.76400391 189.79181641 148.76400391 189.7109375 147.15234375 C190.06606193 138.7073115 196.9225433 131.00903614 202.87109375 125.34375 C215.85657655 114.67075044 229.0428477 110.98725494 245.55859375 111.03125 C246.74904297 111.01513672 247.93949219 110.99902344 249.16601562 110.98242188 C257.44157899 110.97792184 264.89808842 112.14570545 272.87109375 114.34375 C273.02489502 113.40249268 273.17869629 112.46123535 273.3371582 111.49145508 C273.65018424 109.6460757 273.99494589 107.80468135 274.4140625 105.98046875 C276.17625989 95.81394535 275.82040378 85.50177988 270.87109375 76.34375 C270.53207031 75.61671875 270.19304687 74.8896875 269.84375 74.140625 C268.55200351 71.75426603 267.33351896 71.47513456 264.87109375 70.34375 C260.00872544 67.44631135 256.66188839 64.92681563 254.87109375 59.34375 C254.22840502 54.41914759 254.30671758 50.59008071 256.37109375 46.03125 C260.5923955 41.49335062 264.49694891 38.81857897 270.62109375 37.59375 C279.69104918 38.25305914 287.97998203 45.6250149 293.91015625 51.97265625 C307.36281606 68.2391194 309.18410562 87.05261758 307.87109375 107.34375 C307.08061473 112.84771356 305.5292976 118.04282524 303.87109375 123.34375 C303.51344586 125.00536875 303.16988038 126.67054486 302.87109375 128.34375 C303.71414063 128.97023438 304.5571875 129.59671875 305.42578125 130.2421875 C306.53261554 131.06762324 307.63938289 131.89314876 308.74609375 132.71875 C309.30167969 133.13125 309.85726563 133.54375 310.4296875 133.96875 C312.70610615 135.6692073 314.85900565 137.3316619 316.87109375 139.34375 C323.11318558 138.56027757 327.53032421 133.98885295 331.33203125 129.32421875 C337.21836385 121.41786576 342.1661136 112.99145095 346.87109375 104.34375 C346.113125 104.08464844 345.35515625 103.82554687 344.57421875 103.55859375 C341.77644179 102.30121133 340.53695869 101.25066367 338.62109375 98.90625 C338.1209375 98.30941406 337.62078125 97.71257812 337.10546875 97.09765625 C334.46122003 93.34048007 334.5745712 89.79158826 334.87109375 85.34375 C336.56709982 80.07720483 338.30548473 77.41663596 342.87109375 74.34375 C345.41077745 73.50936277 347.77692798 72.8438026 350.37109375 72.28125 C351.07161865 72.11915039 351.77214355 71.95705078 352.49389648 71.79003906 C353.92686136 71.45944229 355.36103838 71.13405503 356.79638672 70.81396484 C358.72444194 70.3769874 360.6439775 69.90287415 362.5625 69.42578125 C371.12622817 67.31213803 377.81586798 65.80353184 385.87109375 70.34375 C389.55723966 73.12053833 391.57376256 75.65055099 392.3828125 80.2578125 C392.55477576 85.03720516 392.27282734 88.47847765 390.24609375 92.84375 C386.29560766 97.00215641 382.16475742 99.30152442 376.87109375 101.34375 C388.56397413 118.14685218 403.17523022 128.69500078 421.37109375 137.65625 C422.37946289 138.15366699 422.37946289 138.15366699 423.40820312 138.66113281 C426.09344378 139.98224971 428.77994799 141.29988525 431.4765625 142.59765625 C438.27798244 146.2599593 440.36654142 152.06669601 442.83984375 159.09765625 C448.29484038 177.65979757 444.08534006 196.02475641 435.05078125 212.60546875 C425.52117051 229.28864062 411.06331434 243.1587465 394.87109375 253.34375 C394.26749023 253.72724609 393.66388672 254.11074219 393.04199219 254.50585938 C378.69894513 263.46744922 362.47948865 270.04270257 345.87109375 273.34375 C346.33363103 277.58367503 346.90584425 281.641096 347.93359375 285.78125 C349.26205852 291.61844367 349.72508077 296.87667638 347.74609375 302.59375 C344.89629905 306.7734489 341.76516404 309.71239324 336.87109375 311.34375 C335.48155918 311.44883124 334.08771355 311.50211805 332.69433594 311.52075195 C331.85626404 311.53358719 331.01819214 311.54642242 330.15472412 311.55964661 C328.80003021 311.57072701 328.80003021 311.57072701 327.41796875 311.58203125 C326.48438538 311.590103 325.550802 311.59817474 324.58892822 311.60649109 C322.61187593 311.62032233 320.63479986 311.63104878 318.65771484 311.63891602 C315.64634448 311.65610586 312.63607874 311.69999787 309.625 311.74414062 C307.70183097 311.75427006 305.77865263 311.76278538 303.85546875 311.76953125 C302.9604364 311.78703934 302.06540405 311.80454742 301.14324951 311.82258606 C294.22824718 311.79880474 290.20680076 310.23105592 284.90234375 305.63964844 C284.39703125 305.0830957 283.89171875 304.52654297 283.37109375 303.953125 C282.51124878 303.01883667 282.51124878 303.01883667 281.6340332 302.06567383 C280.76137817 301.08957153 280.76137817 301.08957153 279.87109375 300.09375 C279.25516357 299.41916748 278.6392334 298.74458496 278.00463867 298.04956055 C274.49961512 294.19863733 271.03725226 290.31024811 267.640625 286.36328125 C265.26224878 283.6488872 262.81597021 280.99805875 260.37109375 278.34375 C257.29286852 275.00006219 254.23025794 271.64706886 251.24609375 268.21875 C250.71242188 267.60644531 250.17875 266.99414062 249.62890625 266.36328125 C248.26787975 264.79961303 246.90890678 263.23415728 245.55078125 261.66796875 C244.74898438 260.75660156 243.9471875 259.84523438 243.12109375 258.90625 C242.01507813 257.63974609 242.01507813 257.63974609 240.88671875 256.34765625 C237.54979521 253.03013343 234.09239805 253.13487363 229.56225586 252.7487793 C216.91748435 251.65014532 203.58354683 249.69721355 192.87109375 242.34375 C192.21367187 241.54324219 191.55625 240.74273437 190.87890625 239.91796875 C188.306395 236.81305132 186.53788619 235.09926372 182.87109375 233.34375 C175.80385116 233.03456673 168.74149243 234.69015348 161.80908203 235.89550781 C139.14828882 239.35281347 116.04063062 233.52049884 97.37890625 220.62109375 C87.76387876 213.51503808 81.45674929 204.14009928 74.87109375 194.34375 C74.12988281 194.65828125 73.38867188 194.9728125 72.625 195.296875 C50.14009337 204.43394844 25.90242574 207.65007566 2.94140625 198.12890625 C-10.78743721 191.42005215 -21.45334737 178.90247068 -29.31640625 166.125 C-31.08689356 163.40821775 -32.99492873 160.96099639 -35.06640625 158.46875 C-54.45791975 134.69730005 -60.71705815 108.53594567 -59.12890625 78.34375 C-56.04142255 50.26521941 -37.24395773 18.6477645 -16.00390625 0.53125 C-10.90979206 -1.57284064 -5.27666069 -1.62656697 0 0 Z " fill="#E88793" transform="translate(59.12890625,151.65625)"/>
<path d="M0 0 C14.98822997 6.62270627 23.90883092 17.89354137 29.8125 32.8125 C36.03627947 49.34882022 34.18294822 68.43121774 29 85 C28.64235211 86.66161875 28.29878663 88.32679486 28 90 C28.72703125 90.51046875 29.4540625 91.0209375 30.203125 91.546875 C46.64479303 103.43546573 61.80452508 118.7660283 65.72265625 139.55078125 C66.73740561 148.51201851 67.44906127 158.90228138 61.625 166.375 C57.76564121 170.23435879 55.07036972 171.29873432 49.625 171.375 C44.6089761 171.26813398 41.77872986 170.50223743 38 167 C34.18002352 162.2844979 33.52564656 158.64194315 33.5625 152.75 C33.22887811 141.61536932 29.38302216 134.56786954 21.71484375 126.453125 C6.87109456 113.04035595 -13.12330747 104.87652719 -33.13671875 105.68359375 C-41.47733875 106.36669812 -47.29368231 108.78041564 -53 115 C-53.639375 116.010625 -54.27875 117.02125 -54.9375 118.0625 C-57.99230211 122.41327876 -61.78770758 125.22805376 -67.015625 126.484375 C-71.83505452 126.82590938 -75.32776525 125.28836182 -79.234375 122.54296875 C-83.33762788 118.95716148 -85.18464588 115.11534321 -85.625 109.6875 C-85.1910797 100.88939178 -78.13669285 92.84446938 -72 87 C-59.0145172 76.32700044 -45.82824605 72.64350494 -29.3125 72.6875 C-28.12205078 72.67138672 -26.93160156 72.65527344 -25.70507812 72.63867188 C-17.42951476 72.63417184 -9.97300533 73.80195545 -2 76 C-1.84619873 75.05874268 -1.69239746 74.11748535 -1.53393555 73.14770508 C-1.22090951 71.3023257 -0.87614786 69.46093135 -0.45703125 67.63671875 C1.30516614 57.47019535 0.94931003 47.15802988 -4 38 C-4.50853516 36.90945312 -4.50853516 36.90945312 -5.02734375 35.796875 C-6.31909024 33.41051603 -7.53757479 33.13138456 -10 32 C-14.86236831 29.10256135 -18.20920536 26.58306563 -20 21 C-20.64268873 16.07539759 -20.56437617 12.24633071 -18.5 7.6875 C-13.52409259 2.33839954 -7.63424644 -2.04371019 0 0 Z " fill="#CC7282" transform="translate(334,190)"/>
<path d="M0 0 C0 0.33 0 0.66 0 1 C-1.19625 1 -2.3925 1 -3.625 1 C-19.41902971 2.80715387 -37.32968861 19.5065525 -46.82421875 31.2578125 C-57.50906046 45.80840594 -63.23574973 61.17786013 -66 79 C-71.25606755 77.52513359 -74.16260106 74.14049106 -77.8125 70.3125 C-79.05930176 69.03330537 -80.30798374 67.75594048 -81.55859375 66.48046875 C-82.15397949 65.87251465 -82.74936523 65.26456055 -83.36279297 64.63818359 C-85.86267882 62.13680661 -88.51717792 59.84833302 -91.21875 57.5703125 C-93.21687282 55.80880949 -95.03236137 53.92307127 -96.875 52 C-104.49887075 44.31656776 -114.25973428 37.11656715 -125.4375 36.5 C-130.13513483 36.70061074 -134.21200081 38.33485748 -138.51953125 40.125 C-141 41 -141 41 -145 41 C-146.60546875 39.49609375 -146.60546875 39.49609375 -148.1875 37.4375 C-155.12177693 29.12224419 -162.83455418 24.58037111 -173 21 C-173.66515625 20.76410156 -174.3303125 20.52820313 -175.015625 20.28515625 C-181.74809344 18.28005152 -189.0226917 18.3452314 -196 18 C-193.10070669 15.65225079 -190.33561268 14.15442177 -186.87890625 12.765625 C-185.872229 12.35989258 -184.86555176 11.95416016 -183.82836914 11.53613281 C-182.21176392 10.89949707 -182.21176392 10.89949707 -180.5625 10.25 C-179.44157959 9.8075293 -178.32065918 9.36505859 -177.16577148 8.90917969 C-122.89165292 -12.29459098 -55.72177064 -23.38256244 0 0 Z " fill="#FCA4B7" transform="translate(344,61)"/>
<path d="M0 0 C24.61568633 7.65933331 51.99026888 22.14553478 70 41 C69.319375 40.835 68.63875 40.67 67.9375 40.5 C62.01872002 39.49254809 57.63878764 39.44725114 52.5703125 42.765625 C46.54644483 47.50080456 46.41629269 53.31830024 45.55078125 60.453125 C44.42194809 67.7224903 41.76497419 75.1291306 36 80 C34.16349459 81.1942751 32.30737526 82.35867986 30.4375 83.5 C26.08912764 86.18989611 23.00917574 88.1205732 21 93 C20.23133254 97.97567535 20.33921882 102.41346443 22.6875 106.9375 C25.6681377 110.90120522 25.6681377 110.90120522 30 113 C36.35263594 113.61064097 41.99724796 113.13431183 48 111 C44.44658129 117.97016747 40.38919431 122.31713506 32.96508789 125.38037109 C29.53320236 126.46250869 26.19941725 126.48694303 22.625 126.4375 C21.45360474 126.42614014 21.45360474 126.42614014 20.25854492 126.41455078 C0.91015306 125.88115111 -24.82458171 117.61556999 -39 104 C-39.63110352 101.27368164 -39.63110352 101.27368164 -39.62890625 98.16015625 C-39.63398193 97.02078613 -39.63905762 95.88141602 -39.64428711 94.70751953 C-39.61729736 93.50466309 -39.59030762 92.30180664 -39.5625 91.0625 C-39.54517822 89.83644043 -39.52785645 88.61038086 -39.51000977 87.34716797 C-39.28863423 78.89434014 -38.68049224 71.70840557 -35 64 C-34.23623047 62.34871094 -34.23623047 62.34871094 -33.45703125 60.6640625 C-26.00959619 45.76919238 -14.57795725 36.39076627 -0.15625 28.38671875 C3.42035351 26.08654801 5.64496804 24.06509588 7 20 C7.51255795 14.64755061 7.69236411 10.33697897 5.1875 5.5 C3.51060204 3.58354519 1.81046849 1.78453055 0 0 Z " fill="#FCA4B7" transform="translate(348,63)"/>
<path d="M0 0 C5.18467322 3.03722606 8.1597038 6.24649115 10.0234375 11.984375 C12.48506268 24.53542446 10.81780309 36.21079536 3.6171875 47.01171875 C3.91771854 50.5202439 5.46094272 52.23669706 7.9296875 54.63671875 C8.52394531 55.22710937 9.11820312 55.8175 9.73046875 56.42578125 C12.27823222 58.56737953 14.25632901 60.02733089 17.66015625 59.98828125 C18.36785156 59.87226563 19.07554687 59.75625 19.8046875 59.63671875 C33.43723968 57.79811796 33.43723968 57.79811796 39.6171875 62.01171875 C43.54383034 66.00220944 45.76750829 69.12812517 45.9296875 74.76171875 C45.87340802 79.64396385 44.91306605 82.27045121 41.6171875 86.01171875 C35.42544865 92.03146485 28.12606923 93.56298939 19.8046875 93.44921875 C19.01570068 93.44092041 18.22671387 93.43262207 17.41381836 93.42407227 C2.81315473 93.00366172 -8.66858537 85.30563904 -18.60546875 75.02734375 C-20.3828125 73.01171875 -20.3828125 73.01171875 -22.3828125 70.01171875 C-22.98867187 70.19347656 -23.59453125 70.37523437 -24.21875 70.5625 C-25.98647824 71.09281847 -27.75474959 71.62132853 -29.5234375 72.1484375 C-31.35048331 72.70004559 -33.17388757 73.26396275 -34.9921875 73.84375 C-35.82234375 74.10542969 -36.6525 74.36710937 -37.5078125 74.63671875 C-38.25289062 74.87648438 -38.99796875 75.11625 -39.765625 75.36328125 C-53.68743735 78.8125661 -69.27388325 78.64493886 -81.94140625 71.5859375 C-89.17003438 66.99237578 -96.75952853 60.6996487 -98.87109375 52 C-99.20267134 47.17791443 -97.67022496 43.69342447 -94.93359375 39.77734375 C-91.53651964 35.90964225 -88.05464409 34.2206977 -82.8828125 33.57421875 C-76.15018042 34.41579776 -71.73730489 37.22337563 -66.86328125 41.70703125 C-63.10727539 45.01707335 -58.73603444 44.33640618 -53.96484375 44.2890625 C-44.21571842 43.53422292 -33.76318821 39.24332832 -26.6875 32.36328125 C-22.05781698 26.93993828 -22.31890723 22.91484679 -22.68554688 16.12890625 C-22.81603467 10.92872612 -21.77593148 8.16366252 -18.3828125 4.01171875 C-12.93310792 -0.90630733 -7.00681296 -2.90610439 0 0 Z " fill="#CC7282" transform="translate(230.3828125,140.98828125)"/>
<path d="M0 0 C1 2 1 2 0.2578125 4.609375 C-0.11601563 5.64578125 -0.48984375 6.6821875 -0.875 7.75 C-7.84206535 27.14085321 -4.4705365 48.80945172 4.04443359 67.08642578 C6.21923049 71.44157603 8.9400492 75.2339067 12 79 C12.50789063 79.680625 13.01578125 80.36125 13.5390625 81.0625 C19.85638046 89.02916698 28.90923308 94.6665066 38 99 C32.85714286 116.14285714 32.85714286 116.14285714 28 121 C22.6384818 121.54709369 19.36501985 120.52168108 14.796875 117.97265625 C9.8247391 115.28121747 4.39750754 115.29461272 -1.05078125 116.42578125 C-10.38878533 119.47607116 -17.38860254 127.06433781 -24 134 C-37.90650357 116.50602159 -39.0369729 90.52486083 -36.69970703 69.26904297 C-32.66784816 44.3742405 -17.75370726 17.75370726 0 0 Z " fill="#FB93A0" transform="translate(37,158)"/>
<path d="M0 0 C4.60047441 2.27062042 7.2488319 5.58961289 8.8828125 10.3359375 C9.45767889 15.26336368 8.82678928 18.74901327 7.3828125 23.4609375 C3.58494165 36.40249739 5.94944861 48.5571114 11.8828125 60.3359375 C16.47226384 68.53138632 23.80361898 74.75692021 32.8828125 77.3359375 C36.70521083 77.93394485 40.47957819 78.39005188 44.33203125 78.74609375 C51.36676825 79.91468042 54.79565247 82.84746546 58.8828125 88.3359375 C60.73883494 92.04798237 60.33156851 96.284668 59.8828125 100.3359375 C57.38946747 105.32262757 53.88930301 108.83269224 48.8828125 111.3359375 C29.06759817 112.56552121 11.39363794 106.96004726 -3.66015625 93.734375 C-18.65675889 79.09540199 -26.94712197 60.2301818 -27.40869141 39.33251953 C-27.49536288 29.02667638 -26.23131931 20.17841248 -23.1171875 10.3359375 C-22.81425781 9.25828125 -22.51132812 8.180625 -22.19921875 7.0703125 C-20.70972367 3.30624551 -18.97073338 2.18627055 -15.53125 0.25390625 C-10.44507164 -1.68015834 -5.17640781 -1.62359655 0 0 Z " fill="#CC7282" transform="translate(59.1171875,151.6640625)"/>
<path d="M0 0 C4.29750269 2.33592481 7.2061378 5.43608083 9 10 C9.54777856 14.77349892 9.63640698 19.3736266 7.875 23.875 C3.63573734 28.67949768 -1.46751284 32.04931733 -6.875 35.375 C-22.15787235 45.05168309 -32.21332816 57.89174572 -36.57905579 75.82424927 C-37.25043105 79.29441269 -37.29789952 82.70118943 -37.30859375 86.2265625 C-37.33373272 87.76823329 -37.35913102 89.30989987 -37.38476562 90.8515625 C-37.41354521 93.24543341 -37.4376111 95.63923185 -37.45629883 98.03320312 C-37.47802236 100.36884117 -37.51743386 102.70369768 -37.55859375 105.0390625 C-37.55870956 105.74858063 -37.55882538 106.45809875 -37.5589447 107.18911743 C-37.65107438 111.84749149 -38.55639925 115.03805603 -41 119 C-46.27894649 123.76392732 -49.84717917 124.55442239 -56.87890625 124.453125 C-61.20142413 123.82557547 -63.46067363 122.41138455 -66.44140625 119.26953125 C-74.49096892 107.54823824 -72.03325671 87.9468398 -69.81762695 74.62695312 C-66.30048695 55.90060502 -58.72775352 39.28526064 -46 25 C-45.00419922 23.88044922 -45.00419922 23.88044922 -43.98828125 22.73828125 C-37.73755355 16.11782474 -30.56412266 10.99414888 -23 6 C-22.03578125 5.35160156 -21.0715625 4.70320313 -20.078125 4.03515625 C-13.58315466 0.04619325 -7.59307757 -1.64408517 0 0 Z " fill="#CC7282" transform="translate(347,62)"/>
<path d="M0 0 C14.85498018 10.48586836 28.28773886 24.1473051 40 38 C40.93523194 39.08416736 41.8715288 40.16741655 42.80859375 41.25 C48.0081646 47.2679152 53.09864054 53.33406094 58.01171875 59.58984375 C60.2123563 62.25741422 62.55908739 64.74006226 64.9375 67.25 C68.77086452 71.40973457 72.00900258 75.6957144 75.0625 80.4375 C75.6356897 81.32453613 75.6356897 81.32453613 76.22045898 82.22949219 C78.00668677 85.08843966 79.46430263 87.64571032 80 91 C63.6940346 96.22465041 43.79770176 90.00159714 29 83 C21.87137229 79.20757006 15.85216398 74.32144554 9.78051758 69.06567383 C3.39171178 63.54845979 -3.25983477 58.4627055 -11 55 C-9.72018055 51.54873332 -8.20481739 48.63371936 -6.1875 45.5625 C-0.42534662 36.15663198 3.12302202 25.53863086 3.1875 14.5 C3.20167969 13.3965625 3.21585937 12.293125 3.23046875 11.15625 C2.998902 7.98496298 2.3201004 5.86594288 1 3 C0.67 2.01 0.34 1.02 0 0 Z " fill="#FCA4B7" transform="translate(422,107)"/>
<path d="M0 0 C4.66843857 2.59967952 6.77812777 6.06504282 8.828125 10.9375 C12.58537499 24.9475847 9.97656015 39.94118859 3.125 52.4375 C-4.80706164 64.76968539 -18.53421345 78.58254684 -33.25 82.375 C-38.38978567 83.1126181 -42.0196918 83.00133872 -46.6875 80.625 C-50.68065424 77.11881579 -52.83153579 74.31851532 -53.59375 68.95703125 C-53.88230677 63.84236246 -53.79466814 60.21134811 -50.5 56.125 C-46.57654203 52.20951654 -41.94735553 49.74816724 -37.125 47.08984375 C-31.03939568 43.45997922 -25.70486176 38.14851474 -23.25 31.375 C-22.80714944 26.51910269 -23.20491996 21.68188194 -23.49414062 16.82421875 C-23.73536446 9.87879274 -23.00650908 6.54179276 -18.25 1.375 C-12.36064164 -2.68211354 -6.38300793 -2.83557416 0 0 Z " fill="#CC7282" transform="translate(183.25,254.625)"/>
<path d="M0 0 C-0.928125 0.5775 -1.85625 1.155 -2.8125 1.75 C-6.17562721 4.12397215 -8.22624838 5.96010936 -9.6875 9.8125 C-10.58315174 16.08206215 -10.1499138 20.06387762 -6.53515625 25.26953125 C-3.38771802 28.81740691 -0.00398306 29.83069268 4.54296875 30.21484375 C5.45691406 30.26769531 6.37085938 30.32054688 7.3125 30.375 C13.14058467 30.76998776 18.31300652 32.42206877 23 36 C23.7734375 38.16796875 23.7734375 38.16796875 24 40 C-10.68850234 54.27317803 -44.75271845 51.42374486 -80.09082031 40.34448242 C-82.16545547 39.74690245 -82.16545547 39.74690245 -84.25 41.4375 C-85.11625 42.2109375 -85.11625 42.2109375 -86 43 C-79.8497795 28.03446346 -56.86149685 17.23046478 -43 11 C-42.38543945 10.72172363 -41.77087891 10.44344727 -41.13769531 10.15673828 C-10.47801032 -3.49267011 -10.47801032 -3.49267011 0 0 Z " fill="#FCA4B7" transform="translate(147,80)"/>
<path d="M0 0 C3.4445806 2.01433083 5.18337794 5.14029376 6.37890625 8.86328125 C9.24058384 23.84028547 3.81315195 39.91196268 -4.515625 52.30078125 C-11.13111261 61.19256567 -19.45546013 69.46822629 -30.203125 73.05078125 C-35.55996993 73.6478818 -40.57598071 74.01054411 -45.203125 70.92578125 C-48.91650429 67.72889116 -50.87071526 64.59787087 -51.515625 59.65625 C-51.71212201 55.56051545 -51.46343505 52.65422728 -49.828125 48.86328125 C-46.73263143 45.54668099 -43.36070006 43.22315541 -39.60546875 40.703125 C-32.51268566 35.82467419 -28.45110425 29.55684377 -26.55859375 21.2265625 C-26.16095583 18.79266888 -25.99409731 16.38585968 -25.828125 13.92578125 C-25.30111465 8.00145798 -23.04172867 4.71000895 -18.640625 0.73828125 C-12.76904067 -3.32666174 -6.34692962 -2.595353 0 0 Z " fill="#CC7282" transform="translate(419.203125,103.94921875)"/>
<path d="M0 0 C13.97597569 5.33086149 25.39524024 16.30176489 32.61328125 29.375 C34.29679892 33.14215388 34.7794728 36.04230811 34.11328125 40.1875 C32.01916548 44.65715421 29.49441543 48.7048573 25.11328125 51.1875 C22.2783932 52.13246268 20.25769508 52.4136999 17.30078125 52.5 C16.05361328 52.55607422 16.05361328 52.55607422 14.78125 52.61328125 C9.72914619 51.80701578 6.79686914 49.05080536 3.69140625 45.12890625 C2.91289179 44.00431198 2.13691606 42.87795666 1.36328125 41.75 C-2.89560912 35.96371704 -6.73629455 32.11978199 -13.88671875 30.1875 C-16.474769 29.80777567 -19.03877097 29.46800879 -21.63671875 29.1875 C-27.80744082 28.51568752 -30.9287555 28.02501064 -34.88671875 23.1875 C-37.77807756 18.75408316 -38.43994065 15.44310805 -37.88671875 10.1875 C-36.06370242 4.31333628 -33.72033806 1.68416077 -28.88671875 -1.8125 C-20.94718111 -5.78226882 -7.81822389 -2.54999828 0 0 Z " fill="#CC7282" transform="translate(173.88671875,81.8125)"/>
<path d="M0 0 C3.68614591 2.77678833 5.70266881 5.30680099 6.51171875 9.9140625 C6.68368201 14.69345516 6.40173359 18.13472765 4.375 22.5 C-1.52169539 28.70704778 -7.33212656 30.14004129 -15.5625 31.75 C-16.635 31.96172852 -17.7075 32.17345703 -18.8125 32.39160156 C-37.57845352 35.93438612 -37.57845352 35.93438612 -43.48046875 32.59765625 C-47.08660812 29.68083202 -50.06786596 26.66067021 -51 22 C-51.5056961 16.53848209 -50.63310227 12.81222139 -48 8 C-44.22551265 4.34239112 -40.52739688 3.02770603 -35.5 1.9375 C-34.44921265 1.69435059 -34.44921265 1.69435059 -33.37719727 1.44628906 C-31.94423239 1.11569229 -30.51005537 0.79030503 -29.07470703 0.47021484 C-27.14665181 0.0332374 -25.22711625 -0.44087585 -23.30859375 -0.91796875 C-14.74486558 -3.03161197 -8.05522577 -4.54021816 0 0 Z " fill="#CC7282" transform="translate(445,222)"/>
<path d="M0 0 C-9.03007617 6.02005078 -23.39084254 4.27905043 -33.85083008 4.20581055 C-36.58879741 4.18732243 -39.32642927 4.18530308 -42.06445312 4.18554688 C-43.81510709 4.18063838 -45.56575878 4.174813 -47.31640625 4.16796875 C-48.12993057 4.16685593 -48.9434549 4.1657431 -49.78163147 4.16459656 C-53.35299838 4.13455997 -56.56319254 3.96135707 -60 3 C-59.25695317 -1.30038353 -57.3865527 -2.96272426 -54.0546875 -5.60546875 C-38.69641933 -16.02923631 -14.3022413 -9.57557466 0 0 Z " fill="#FB929F" transform="translate(340,305)"/>
</svg>
