<?xml version="1.0" encoding="UTF-8"?>
<svg version="1.1" xmlns="http://www.w3.org/2000/svg" width="512" height="512">
<path d="M0 0 C1.38396973 -0.01058945 1.38396973 -0.01058945 2.79589844 -0.02139282 C41.15845072 -0.24835916 41.15845072 -0.24835916 57.98828125 3.203125 C59.52524658 3.50911621 59.52524658 3.50911621 61.09326172 3.82128906 C97.25456294 11.17885279 132.24769557 25.0574698 161.98828125 47.203125 C162.54628418 47.61240234 163.10428711 48.02167969 163.67919922 48.44335938 C181.2704544 61.38285534 197.493979 75.99904893 210.98828125 93.203125 C211.86985906 94.29526863 212.75272806 95.38637096 213.63671875 96.4765625 C245.72607707 136.28547721 267.87380964 188.51788882 268.2265625 240.1015625 C268.23463425 241.24936188 268.24270599 242.39716125 268.25102234 243.57974243 C268.26481806 246.01213089 268.27556027 248.44453833 268.28344727 250.87695312 C268.29485261 253.31223412 268.31511717 255.74749247 268.3449707 258.18261719 C269.18725346 327.08981692 240.95159176 388.66625199 193.98828125 438.203125 C192.9209375 439.33427734 192.9209375 439.33427734 191.83203125 440.48828125 C187.09974721 445.36602484 181.98770918 449.68628345 176.65185547 453.89013672 C175.48807604 454.80865826 174.32858155 455.73262315 173.17236328 456.66064453 C148.40750105 476.50135252 120.41283335 491.95587562 89.98828125 501.203125 C89.23820801 501.43435059 88.48813477 501.66557617 87.71533203 501.90380859 C79.21273434 504.49123544 70.62981029 506.59866867 61.92578125 508.390625 C61.18392578 508.5455542 60.44207031 508.7004834 59.67773438 508.86010742 C44.10273994 511.9142561 28.69434319 512.57593098 12.86328125 512.515625 C11.87004852 512.51380219 10.8768158 512.51197937 9.85348511 512.51010132 C-4.61746038 512.46537811 -18.78697408 512.10142715 -33.01171875 509.203125 C-33.92808105 509.02088379 -34.84444336 508.83864258 -35.78857422 508.65087891 C-42.24163748 507.33922723 -48.63316507 505.83705252 -55.01171875 504.203125 C-56.12788574 503.92130371 -56.12788574 503.92130371 -57.26660156 503.63378906 C-106.37577723 490.99026105 -154.42049834 459.84351641 -185.72216797 419.84765625 C-186.64031333 418.67676887 -187.56447329 417.51058716 -188.49267578 416.34765625 C-196.9075671 405.79470354 -204.34788937 394.94151239 -211.01171875 383.203125 C-211.69596924 382.00526367 -211.69596924 382.00526367 -212.39404297 380.78320312 C-233.74606627 342.96687904 -244.22587215 300.39357972 -244.26171875 257.078125 C-244.26239349 256.33734711 -244.26306824 255.59656921 -244.26376343 254.83334351 C-244.17976303 196.23482096 -224.05499387 139.64175457 -187.01171875 94.203125 C-186.56393066 93.65237305 -186.11614258 93.10162109 -185.65478516 92.53417969 C-174.70103828 79.17038006 -162.709225 66.77145957 -149.01171875 56.203125 C-148.03203125 55.41808594 -147.05234375 54.63304687 -146.04296875 53.82421875 C-105.48435755 21.54650951 -52.21823978 0.26730591 0 0 Z " fill="#6FBA47" transform="translate(244.01171875,-0.203125)"/>
<path d="M0 0 C5.04971618 1.43944144 9.05568987 3.64123101 13.4375 6.4375 C14.13270752 6.87779541 14.82791504 7.31809082 15.54418945 7.77172852 C27.76642137 15.60982387 39.08775993 24.43934116 50 34 C50.89589844 34.78375 51.79179687 35.5675 52.71484375 36.375 C62.00592068 44.62100973 70.28652824 53.26000035 78 63 C78.88607297 64.09557469 79.77281485 65.19060865 80.66015625 66.28515625 C112.73512156 106.10489988 134.88550734 158.31168531 135.23828125 209.8984375 C135.246353 211.04623688 135.25442474 212.19403625 135.26274109 213.37661743 C135.27653681 215.80900589 135.28727902 218.24141333 135.29516602 220.67382812 C135.30657136 223.10910912 135.32683592 225.54436747 135.35668945 227.97949219 C136.19897221 296.88669192 107.96331051 358.46312699 61 408 C59.93265625 409.13115234 59.93265625 409.13115234 58.84375 410.28515625 C54.11146596 415.16289984 48.99942793 419.48315845 43.66357422 423.68701172 C42.49979479 424.60553326 41.3403003 425.52949815 40.18408203 426.45751953 C15.4192198 446.29822752 -12.5754479 461.75275062 -43 471 C-43.75007324 471.23122559 -44.50014648 471.46245117 -45.27294922 471.70068359 C-53.77554691 474.28811044 -62.35847096 476.39554367 -71.0625 478.1875 C-71.80435547 478.3424292 -72.54621094 478.4973584 -73.31054688 478.65698242 C-88.88554131 481.7111311 -104.29393806 482.37280598 -120.125 482.3125 C-121.11823273 482.31067719 -122.11146545 482.30885437 -123.13479614 482.30697632 C-137.60574163 482.26225311 -151.77525533 481.89830215 -166 479 C-166.9163623 478.81775879 -167.83272461 478.63551758 -168.77685547 478.44775391 C-175.22991873 477.13610223 -181.62144632 475.63392752 -188 474 C-189.11616699 473.71817871 -189.11616699 473.71817871 -190.25488281 473.43066406 C-239.36405848 460.78713605 -287.40877959 429.64039141 -318.71044922 389.64453125 C-319.62859458 388.47364387 -320.55275454 387.30746216 -321.48095703 386.14453125 C-341.33074377 361.251297 -341.33074377 361.251297 -346 348 C-339.07419427 348.63480609 -332.46351251 349.89337147 -325.6875 351.4375 C-306.39163065 355.71868513 -287.97025937 357.23548616 -268.25 357.25 C-266.82202591 357.25151062 -266.82202591 357.25151062 -265.36520386 357.25305176 C-250.37536543 357.24234911 -235.79297146 356.62512516 -221 354 C-220.0610791 353.83419434 -219.1221582 353.66838867 -218.15478516 353.49755859 C-207.60042773 351.59884633 -207.60042773 351.59884633 -197.2578125 348.81640625 C-192.90465071 347.72550599 -190.5532311 348.12810221 -186.67578125 350.3046875 C-185.50595703 351.08199219 -185.50595703 351.08199219 -184.3125 351.875 C-173.70945186 358.36157062 -162.7181134 359.70508958 -150.46484375 357.30859375 C-138.89449843 354.07431009 -131.1382503 347.61502903 -122.875 339.125 C-122.11574219 338.36058594 -121.35648438 337.59617187 -120.57421875 336.80859375 C-116.44177813 332.61925206 -112.49571279 328.32152477 -108.65283203 323.86669922 C-106.0652718 320.94432322 -103.29063364 318.22667461 -100.5 315.5 C-97.04867473 312.09157256 -93.63856398 308.7035055 -90.5 305 C-86.8354347 300.67581294 -82.78479134 296.75917709 -78.7578125 292.77734375 C-75.89425883 289.93358423 -73.1112281 287.08124916 -70.5 284 C-66.8354347 279.67581294 -62.78479134 275.75917709 -58.7578125 271.77734375 C-55.89425883 268.93358423 -53.1112281 266.08124916 -50.5 263 C-46.8354347 258.67581294 -42.78479134 254.75917709 -38.7578125 250.77734375 C-35.89425883 247.93358423 -33.1112281 245.08124916 -30.5 242 C-26.8354347 237.67581294 -22.78479134 233.75917709 -18.7578125 229.77734375 C-15.89425883 226.93358423 -13.1112281 224.08124916 -10.5 221 C-6.83610259 216.67660106 -2.78628354 212.76062019 1.23999023 208.77954102 C4.70539158 205.33811823 7.9774164 201.81509279 11.12890625 198.08203125 C13.13207687 195.85303346 15.25324568 193.76913283 17.40209961 191.68139648 C28.83426479 180.54617066 36.95687452 168.88985757 37.3125 152.4375 C37.19600788 140.06344788 32.69422803 130.24976247 24.4375 121.1875 C20.90714528 118.01923295 17.4721388 115.20854656 13.3359375 112.87890625 C12.23507812 112.25886719 11.13421875 111.63882813 10 111 C10.00666183 110.4335527 10.01332367 109.86710541 10.02018738 109.28349304 C10.40774316 74.72762179 9.52853024 42.61814 1.61669922 8.82299805 C0.97683134 5.89394329 0.46931655 2.96074673 0 0 Z " fill="#57B236" transform="translate(377,30)"/>
<path d="M0 0 C1.32052368 0.01353516 1.32052368 0.01353516 2.66772461 0.02734375 C14.82570034 0.34914294 24.22803171 4.16389774 33.25 12.4375 C42.51316818 22.85272607 46.65638569 33.83966277 46.52734375 47.6328125 C45.12301101 66.89788416 31.75897323 79.04050438 18.796875 91.859375 C16.72687877 93.95476996 14.77905824 96.06910465 12.875 98.3125 C9.68870588 102.05293222 6.24120031 105.48553768 2.75 108.9375 C-0.69938163 112.34820059 -4.11119923 115.7337151 -7.25 119.4375 C-10.9145653 123.76168706 -14.96520866 127.67832291 -18.9921875 131.66015625 C-21.85574117 134.50391577 -24.6387719 137.35625084 -27.25 140.4375 C-30.9145653 144.76168706 -34.96520866 148.67832291 -38.9921875 152.66015625 C-41.85574117 155.50391577 -44.6387719 158.35625084 -47.25 161.4375 C-50.9145653 165.76168706 -54.96520866 169.67832291 -58.9921875 173.66015625 C-61.85574117 176.50391577 -64.6387719 179.35625084 -67.25 182.4375 C-70.9145653 186.76168706 -74.96520866 190.67832291 -78.9921875 194.66015625 C-81.85574117 197.50391577 -84.6387719 200.35625084 -87.25 203.4375 C-90.38880162 207.14128591 -93.80062955 210.52678879 -97.25 213.9375 C-102.34581994 218.97600006 -102.34581994 218.97600006 -107.125 224.3125 C-124.72647006 244.75291684 -124.72647006 244.75291684 -137.75 249.4375 C-138.73613281 249.82615234 -138.73613281 249.82615234 -139.7421875 250.22265625 C-149.37052182 253.34256715 -161.56865226 252.55380424 -170.75 248.4375 C-177.50972248 244.8886457 -183.64062968 240.98702133 -188.58203125 235.1171875 C-193.97791341 228.90978374 -199.90358963 223.21532119 -205.75 217.4375 C-218.53326304 204.80420821 -218.53326304 204.80420821 -223.8359375 198.57421875 C-228.56006553 193.30054929 -233.71579848 188.41264105 -238.75 183.4375 C-251.90869938 170.43317643 -251.90869938 170.43317643 -257.26464844 164.13671875 C-259.64732933 161.4109694 -262.26553973 158.94304183 -264.875 156.4375 C-269.25123412 152.13971483 -273.03079886 147.97173316 -275.75 142.4375 C-276.05292969 141.82132813 -276.35585938 141.20515625 -276.66796875 140.5703125 C-281.45708085 130.09272453 -281.57338827 116.16630284 -277.6875 105.375 C-272.23712153 93.20350876 -263.50913365 84.69113005 -251.36328125 79.3828125 C-241.0170232 75.6402199 -226.26107142 75.58001646 -216.20703125 80.07421875 C-207.70990483 84.78884057 -201.26628732 90.73502668 -194.80126953 97.87646484 C-188.54059284 104.7751295 -181.93553814 111.3171275 -175.30822754 117.86013794 C-170.09108974 123.01111717 -164.94451613 128.16166087 -160.22802734 133.78344727 C-157.96378195 136.31735254 -155.42516097 138.34956949 -152.75 140.4375 C-148.87995771 136.65792623 -145.06445258 132.87667276 -141.5625 128.75 C-138.30569937 124.95414272 -134.8038727 121.45127824 -131.25 117.9375 C-127.80060998 114.52680738 -124.38880013 111.14128415 -121.25 107.4375 C-117.5854347 103.11331294 -113.53479134 99.19667709 -109.5078125 95.21484375 C-106.64425883 92.37108423 -103.8612281 89.51874916 -101.25 86.4375 C-97.5854347 82.11331294 -93.53479134 78.19667709 -89.5078125 74.21484375 C-86.64425883 71.37108423 -83.8612281 68.51874916 -81.25 65.4375 C-77.58610259 61.11410106 -73.53628354 57.19812019 -69.51000977 53.21704102 C-66.04613554 49.77713479 -62.77875066 46.2519615 -59.62109375 42.52734375 C-56.6091824 39.16330915 -53.36576911 36.03349226 -50.15429688 32.86132812 C-47.38744006 30.11530085 -44.71789239 27.34440023 -42.1875 24.375 C-30.6995056 11.01881234 -18.50820712 -0.22729066 0 0 Z " fill="#FEFEFE" transform="translate(368.75,137.5625)"/>
</svg>
