<?xml version="1.0" encoding="UTF-8"?>
<svg version="1.1" xmlns="http://www.w3.org/2000/svg" width="512" height="512">
<path d="M0 0 C0.969375 0.49113281 1.93875 0.98226562 2.9375 1.48828125 C18.27784007 9.40371835 31.80477106 20.82431659 44.125 32.8125 C44.84133606 33.49735474 44.84133606 33.49735474 45.57214355 34.19604492 C48.22601881 36.84115558 50.24260354 39.21406324 51.82421875 42.62719727 C54.09023346 47.12039009 56.52403714 50.52385433 61 53 C70.90257848 55.31280243 81.49966228 54.51186184 91.59539795 54.19171143 C97.58275814 54.01649429 103.57267726 53.96870437 109.56210709 53.91344833 C111.64448592 53.88332177 113.72393749 53.82129347 115.8053894 53.75344849 C117.07085602 53.72797943 118.33632263 53.70251038 119.64013672 53.67626953 C120.75057343 53.64292511 121.86101013 53.60958069 123.00509644 53.57522583 C126.76994741 54.10920344 128.37041832 55.29176402 131 58 C132.10081123 60.72059454 132.12986705 63.31326585 132.14526367 66.23022461 C132.15483345 67.46687111 132.15483345 67.46687111 132.16459656 68.72850037 C132.16626579 70.05205284 132.16626579 70.05205284 132.16796875 71.40234375 C132.17129715 72.31705948 132.17462555 73.23177521 132.17805481 74.17420959 C132.18311181 76.10661314 132.18546351 78.03902539 132.18530273 79.97143555 C132.18748938 82.92316093 132.20565851 85.87451257 132.22460938 88.82617188 C132.22754354 90.70572789 132.22952818 92.58528568 132.23046875 94.46484375 C132.23765427 95.34518784 132.24483978 96.22553192 132.25224304 97.1325531 C132.23180052 102.63138949 132.0816137 106.9183863 128 111 C126.68 111 125.36 111 124 111 C124 115.95 124 120.9 124 126 C125.65 126.33 127.3 126.66 129 127 C131.41486943 129.41486943 131.2961925 130.12707789 131.3125 133.4375 C131.32925781 134.21996094 131.34601563 135.00242188 131.36328125 135.80859375 C131 138 131 138 129.73046875 139.78515625 C128 141 128 141 124 141 C124 145.95 124 150.9 124 156 C125.65 156.33 127.3 156.66 129 157 C132.46852413 160.46852413 132.11881177 164.19869316 132.14663696 168.96327209 C132.14618378 169.75455002 132.14573059 170.54582794 132.14526367 171.36108398 C132.15030159 172.62275391 132.15030159 172.62275391 132.15544128 173.90991211 C132.16493547 176.68865437 132.16689355 179.46733628 132.16796875 182.24609375 C132.1711821 184.17896042 132.17454623 186.11182684 132.17805481 188.04469299 C132.18404203 192.09563765 132.1858951 196.14656099 132.18530273 200.19750977 C132.18520107 205.38720204 132.19885982 210.57675764 132.21607494 215.7664175 C132.22719464 219.75812915 132.22922196 223.74980773 132.22869301 227.74153328 C132.22987292 229.65488214 132.23429529 231.56823186 132.24202538 233.48156548 C132.25182576 236.15764823 132.24894715 238.83343392 132.24291992 241.50952148 C132.24853943 242.29877518 132.25415894 243.08802887 132.25994873 243.90119934 C132.23016394 249.10706608 131.96783853 252.97207638 128.25491333 256.79837036 C125.30342325 258.37120152 123.25900238 258.31292598 119.92138672 258.22607422 C118.07829422 258.19282547 118.07829422 258.19282547 116.19796753 258.15890503 C115.5437167 258.14112881 114.88946587 258.12335258 114.21538925 258.10503769 C112.15372936 258.05404546 110.09350188 258.03040617 108.03128052 258.01565552 C102.16995846 257.97359272 96.31052789 257.92100487 90.45117188 257.75683594 C73.73473848 256.35525385 73.73473848 256.35525385 58.97607422 261.74780273 C56.28046246 264.85760363 54.67604999 268.26297526 53 272 C51.39697266 274.06445312 51.39697266 274.06445312 49.8984375 275.61328125 C49.06570313 276.50402344 48.23296875 277.39476562 47.375 278.3125 C45.59011251 280.21503485 43.79752597 282.10930958 42 284 C41.38125 284.68320312 40.7625 285.36640625 40.125 286.0703125 C10.02050074 318.19073805 -36.79626913 334.70238403 -79.89453125 336.12890625 C-111.9801349 336.75444584 -143.11154914 329.13221937 -171.14941406 313.5559082 C-171.98569336 313.09531006 -172.82197266 312.63471191 -173.68359375 312.16015625 C-174.42150146 311.74386963 -175.15940918 311.32758301 -175.91967773 310.89868164 C-178.23431372 309.7356199 -178.23431372 309.7356199 -182 310 C-183.73841738 311.16118986 -183.73841738 311.16118986 -185.29980469 312.84570312 C-185.92014587 313.46634644 -186.54048706 314.08698975 -187.17962646 314.72644043 C-187.83706848 315.40452759 -188.4945105 316.08261475 -189.171875 316.78125 C-190.1955014 317.81336609 -190.1955014 317.81336609 -191.23980713 318.86633301 C-193.41942309 321.06835746 -195.58473174 323.28387457 -197.75 325.5 C-199.22433958 326.99439862 -200.69958918 328.48790002 -202.17578125 329.98046875 C-205.79449998 333.64331439 -209.40044646 337.31832256 -213 341 C-211.9384281 343.22930099 -211.03340716 344.96273817 -209.375 346.8125 C-207.26412194 350.17071509 -207.34912689 352.09476134 -208 356 C-209.32310295 357.84024811 -209.32310295 357.84024811 -211.06051636 359.74377441 C-211.69780544 360.44424393 -212.33509453 361.14471344 -212.9916954 361.8664093 C-216.16796078 365.24082287 -219.39025769 368.56249607 -222.65673828 371.84960938 C-223.75348625 372.95862358 -223.75348625 372.95862358 -224.87239075 374.09004211 C-227.26869083 376.510948 -229.6689305 378.92788541 -232.0703125 381.34375 C-232.89717434 382.17593552 -233.72403618 383.00812103 -234.57595444 383.86552429 C-238.951383 388.26757335 -243.33040884 392.66601145 -247.71191406 397.06201172 C-251.31696256 400.68039929 -254.91460417 404.3059113 -258.50585938 407.93798828 C-262.86640523 412.34807613 -267.2393075 416.74555156 -271.62115097 421.13447571 C-273.27822078 422.79821741 -274.93106695 424.46617794 -276.57938004 426.13859558 C-291.14950502 440.90960673 -304.37802984 452.33319336 -326.0625 453.25 C-341.50872441 452.98730911 -354.59109789 447.20955463 -365.59375 436.5546875 C-376.3247483 425.16171204 -379.75170863 411.8808794 -379.52124023 396.57177734 C-378.86430977 380.20986909 -370.87601221 368.26014739 -359.51367188 356.94848633 C-358.69484024 356.11782654 -357.87600861 355.28716675 -357.03236389 354.43133545 C-354.35476717 351.72115338 -351.66276236 349.02588927 -348.96875 346.33203125 C-347.56505797 344.92062744 -346.16137075 343.50921867 -344.75827169 342.09722537 C-340.36173728 337.67347459 -335.95444178 333.26065191 -331.54052734 328.85424805 C-326.9957276 324.31671966 -322.47176891 319.75912065 -317.95703268 315.19169599 C-314.06446669 311.25536133 -310.15850633 307.33267062 -306.24172831 303.4204275 C-303.90894093 301.08995861 -301.58340567 298.75300388 -299.26780701 296.40543556 C-296.69029221 293.7960647 -294.09162 291.20977031 -291.48632812 288.62817383 C-290.34835533 287.46187691 -290.34835533 287.46187691 -289.18739319 286.27201843 C-283.97575564 281.17270113 -283.97575564 281.17270113 -279.24694824 280.33573914 C-275.86612473 281.02738821 -274.17830864 281.79721377 -271.5625 284 C-270.88316406 284.556875 -270.20382812 285.11375 -269.50390625 285.6875 C-269.00761719 286.120625 -268.51132812 286.55375 -268 287 C-263.40347785 282.55539958 -258.83048069 278.08760227 -254.27319336 273.6027832 C-252.71961716 272.07941137 -251.16070293 270.56146385 -249.59643555 269.04907227 C-247.35085785 266.87613933 -245.12510033 264.68452271 -242.90234375 262.48828125 C-241.84466042 261.47704948 -241.84466042 261.47704948 -240.76560974 260.44538879 C-237.00173949 256.95909524 -237.00173949 256.95909524 -235.97070312 252.2121582 C-237.32506529 249.30137177 -238.87848681 246.61028562 -240.5625 243.875 C-247.33468813 232.48646531 -256.30392548 216.57365255 -255.875 203.0625 C-255 200 -255 200 -253.42578125 198.7890625 C-251.13203883 195.91088708 -251.94723049 192.77447915 -252.3125 189.3125 C-252.4043457 188.2596582 -252.4043457 188.2596582 -252.49804688 187.18554688 C-252.65102624 185.4557033 -252.82362602 183.72761503 -253 182 C-253.928125 181.8453125 -253.928125 181.8453125 -254.875 181.6875 C-257 181 -257 181 -259 178 C-259.3125 174.5 -259.3125 174.5 -259 171 C-258.51273437 170.59136719 -258.02546875 170.18273437 -257.5234375 169.76171875 C-255.13384768 166.99837257 -255.42675931 163.80883494 -255.3125 160.3125 C-255.27833984 159.61060547 -255.24417969 158.90871094 -255.20898438 158.18554688 C-255.12670053 156.45758613 -255.0616676 154.72881928 -255 153 C-255.78375 152.731875 -256.5675 152.46375 -257.375 152.1875 C-260 151 -260 151 -262 148 C-264.14238525 110.36050739 -244.59569052 69.66768469 -220.37109375 41.94140625 C-218.90768324 40.31887696 -217.43218548 38.70704626 -215.9375 37.11328125 C-213.92728994 34.97244022 -213.92728994 34.97244022 -211.96875 32.4296875 C-209.03145015 28.8046865 -205.55179566 26.00581716 -202 23 C-201.16855469 22.2575 -200.33710938 21.515 -199.48046875 20.75 C-145.14089418 -26.67362872 -62.89332491 -34.04381984 0 0 Z " fill="#000101" transform="translate(380,40)"/>
<path d="M0 0 C1.19192001 -0.00854425 2.38384002 -0.0170885 3.61187881 -0.02589166 C6.89949103 -0.03945984 10.18310553 -0.00844974 13.47024548 0.04188895 C17.02226143 0.08525253 20.57410591 0.07044755 24.12631226 0.06286621 C30.27351112 0.05763364 36.41964502 0.0888893 42.566576 0.1452446 C51.45370811 0.22666894 60.34032758 0.25257431 69.22779226 0.26512451 C83.64832315 0.28698713 98.06828697 0.35347103 112.48851013 0.44815063 C126.49271313 0.54000289 140.49676186 0.61075637 154.50120544 0.65322876 C155.79700175 0.65716961 155.79700175 0.65716961 157.11897577 0.66119008 C161.45291975 0.67424087 165.78686483 0.68687785 170.12081063 0.69930911 C206.05033668 0.80290245 241.97921804 0.97896841 277.90818787 1.20254517 C277.91753357 2.27214478 277.92687927 3.34174438 277.93650818 4.4437561 C277.97642299 8.41748487 278.04218507 12.3904406 278.1157074 16.36367798 C278.14390854 18.08232685 278.1651274 19.80110522 278.17918396 21.51992798 C278.2006262 23.99293264 278.24727942 26.46438192 278.29881287 28.93692017 C278.30065582 30.08713654 278.30065582 30.08713654 278.30253601 31.2605896 C278.39858047 34.76969517 278.61771403 36.8173416 280.7587738 39.65664673 C282.91744029 41.3707398 282.91744029 41.3707398 285.90818787 42.20254517 C285.90818787 47.15254517 285.90818787 52.10254517 285.90818787 57.20254517 C287.55818787 57.53254517 289.20818787 57.86254517 290.90818787 58.20254517 C293.3230573 60.6174146 293.20438037 61.32962305 293.22068787 64.64004517 C293.23744568 65.4225061 293.25420349 66.20496704 293.27146912 67.01113892 C292.90818787 69.20254517 292.90818787 69.20254517 291.63865662 70.98770142 C289.90818787 72.20254517 289.90818787 72.20254517 285.90818787 72.20254517 C285.90818787 77.15254517 285.90818787 82.10254517 285.90818787 87.20254517 C283.92818787 88.19254517 281.94818787 89.18254517 279.90818787 90.20254517 C278.37419226 93.27053638 278.72870832 96.49656785 278.7028656 99.86514282 C278.692966 100.65547409 278.68306641 101.44580536 278.67286682 102.26008606 C278.64121665 104.87889586 278.61648053 107.49772383 278.59178162 110.11660767 C278.57121512 111.92979409 278.55021873 113.74297569 278.52880859 115.55615234 C278.47355645 120.33352758 278.42416105 125.11094631 278.3759613 129.88839722 C278.32576921 134.76138184 278.2700712 139.63430314 278.21482849 144.50723267 C278.10720848 154.07228276 278.00577206 163.63738779 277.90818787 173.20254517 C240.71801675 173.40855628 203.5279316 173.56713757 166.33730531 173.66213313 C161.94638111 173.67338946 157.55545804 173.68503836 153.16453552 173.69692993 C152.29038388 173.69929073 151.41623223 173.70165152 150.51559114 173.70408385 C136.36236123 173.74324319 122.2094604 173.81420262 108.05642569 173.89692033 C93.53348822 173.98109187 79.01072307 174.03107572 64.48755169 174.04934162 C55.52614744 174.06168946 46.56567334 174.10068267 37.60455543 174.17379337 C31.4590837 174.22137733 25.31409262 174.23574417 19.16845006 174.22405756 C15.62260453 174.21829373 12.07838372 174.22710835 8.53282738 174.27539444 C4.68583168 174.32740229 0.84094574 174.30942214 -3.00636292 174.28483582 C-4.12310803 174.31105139 -5.23985315 174.33726696 -6.39043903 174.36427695 C-10.91339424 174.28608702 -13.897346 174.15307359 -17.50956345 171.2785548 C-19.56787043 169.00802699 -21.35801905 166.72735742 -23.09181213 164.20254517 C-23.6262047 163.43647479 -24.16059727 162.67040442 -24.71118355 161.88111979 C-26.12266221 159.79821478 -27.43002602 157.67704649 -28.71681213 155.51504517 C-29.18627258 154.73105347 -29.65573303 153.94706177 -30.13941956 153.13931274 C-46.50627621 125.29609444 -52.47827419 89.81547043 -44.63087463 58.20010376 C-39.98110098 40.96982839 -32.1841872 25.20563601 -21.09181213 11.20254517 C-20.13434738 9.89593931 -20.13434738 9.89593931 -19.1575399 8.56293738 C-13.32160755 1.19251564 -9.23163384 -0.24397818 0 0 Z " fill="#00E3EE" transform="translate(218.09181213378906,108.79745483398438)"/>
<path d="M0 0 C1.68000415 1.44294835 3.34710256 2.90107872 5 4.375 C6.30710937 5.5196875 6.30710937 5.5196875 7.640625 6.6875 C14.57676606 12.83449926 20.88948827 18.61607546 26 26.375 C-3.0635399 28.1119714 -3.0635399 28.1119714 -9.23828125 24.46484375 C-12.07250857 21.92854351 -14.49918214 19.23651274 -17 16.375 C-19.17208358 14.74050711 -21.27242949 13.25172567 -23.5625 11.8125 C-24.42415771 11.26686401 -24.42415771 11.26686401 -25.30322266 10.71020508 C-50.85473341 -4.98631762 -80.03344434 -12.46867861 -110 -10.625 C-110.69818848 -10.58632813 -111.39637695 -10.54765625 -112.11572266 -10.5078125 C-146.5369821 -8.32182544 -181.44128177 9.34381648 -204.37109375 35.03125 C-206.64892887 37.76618862 -208.84387419 40.54331507 -211 43.375 C-211.59425781 44.15359375 -212.18851563 44.9321875 -212.80078125 45.734375 C-235.6485033 77.03838039 -242.51971827 113.38085291 -238.375 151.5625 C-233.19829868 182.69613631 -215.96880786 215.66747665 -191 235.375 C-190.0925 236.13039063 -189.185 236.88578125 -188.25 237.6640625 C-160.38184609 260.44048922 -123.73218308 271.46718673 -87.9453125 268.08642578 C-60.79049261 265.02493353 -27.98993159 255.73641901 -9.18969727 234.31201172 C-4.57459573 229.4076863 -1.34990049 227.83681176 5.44140625 227.59375 C8.15357048 227.61771638 10.85397698 227.73930181 13.5625 227.875 C14.96669452 227.91520786 16.37100073 227.95169577 17.77539062 227.984375 C21.18648423 228.07815077 24.59177051 228.20928898 28 228.375 C26.1537306 232.3321248 23.5894158 235.27342552 20.625 238.4375 C20.0889917 239.01040771 19.5529834 239.58331543 19.00073242 240.17358398 C-10.06881661 270.90181979 -49.48315222 290.11965985 -92.07421875 291.69921875 C-136.57320128 292.6807715 -177.78693948 279.40551244 -210.58984375 248.68359375 C-211.38519531 247.92175781 -212.18054688 247.15992188 -213 246.375 C-213.92941406 245.52035156 -214.85882813 244.66570312 -215.81640625 243.78515625 C-236.88701341 224.00048349 -250.04752792 197.842741 -258 170.375 C-260.97 169.715 -263.94 169.055 -267 168.375 C-267.33951619 166.81383181 -267.67132544 165.25098662 -268 163.6875 C-268.185625 162.81738281 -268.37125 161.94726562 -268.5625 161.05078125 C-268.98972047 158.43787036 -269.07616201 156.01686962 -269 153.375 C-269.928125 153.2203125 -269.928125 153.2203125 -270.875 153.0625 C-273 152.375 -273 152.375 -275 149.375 C-275.3125 145.875 -275.3125 145.875 -275 142.375 C-274.51273437 141.97667969 -274.02546875 141.57835937 -273.5234375 141.16796875 C-271.06573356 138.27544027 -271.42367391 134.8244751 -271.3125 131.1875 C-271.27833984 130.43791016 -271.24417969 129.68832031 -271.20898438 128.91601562 C-271.12665706 127.06953162 -271.06164719 125.22229006 -271 123.375 C-270.05125 123.1275 -269.1025 122.88 -268.125 122.625 C-265.02728806 121.68011856 -265.02728806 121.68011856 -263.671875 119.73828125 C-262.71839914 116.38448535 -262.51309566 113.02211335 -262.25 109.5625 C-258.77624647 73.74563299 -241.63863859 41.15220785 -217 15.375 C-216.35417969 14.66601562 -215.70835937 13.95703125 -215.04296875 13.2265625 C-195.26706517 -7.72152657 -167.71796416 -22.42113685 -140 -29.625 C-139.28199219 -29.82109863 -138.56398438 -30.01719727 -137.82421875 -30.21923828 C-91.55626003 -42.43549768 -37.05059481 -29.85934012 0 0 Z " fill="#097699" transform="translate(396,68.625)"/>
<path d="M0 0 C6.28513004 5.18760582 12.00311158 10.87427266 17.74609375 16.6484375 C18.76720048 17.67141306 19.788531 18.69416528 20.81007385 19.71670532 C23.47711353 22.38753361 26.14113436 25.06135282 28.80450439 27.73583984 C31.5312385 30.47286736 34.26086305 33.20700901 36.99023438 35.94140625 C42.32963089 41.29147548 47.66583652 46.64471273 53 52 C51.5831591 55.21195754 49.87906373 57.37800969 47.41162109 59.86303711 C46.67680511 60.6073851 45.94198914 61.35173309 45.18490601 62.11863708 C44.3891214 62.91351028 43.59333679 63.70838348 42.7734375 64.52734375 C41.95179108 65.3532753 41.13014465 66.17920685 40.28359985 67.03016663 C38.54269653 68.77681255 36.79916667 70.52084391 35.05322266 72.26245117 C32.39728719 74.91523922 29.75491054 77.58102204 27.11328125 80.24804688 C25.41747868 81.94612382 23.72088892 83.64341505 22.0234375 85.33984375 C21.23979828 86.13269272 20.45615906 86.92554169 19.64877319 87.74241638 C10.33417246 96.98004157 1.39120701 102.23042212 -11.9375 102.4375 C-23.01933825 102.34268487 -30.97888801 98.56012854 -39 91 C-47.11313917 82.00114694 -49.46972942 72.67895993 -49.33203125 60.69921875 C-47.67503804 42.23836504 -29.21565636 29.08777484 -16.9375 16.875 C-15.29208424 15.23460915 -13.64689999 13.59398605 -12.00195312 11.953125 C-8.00396822 7.96606742 -4.0031313 3.98189006 0 0 Z " fill="#FDCB00" transform="translate(65,375)"/>
<path d="M0 0 C49.83 0 99.66 0 151 0 C132.72009557 18.27990443 102.74988233 26.16019379 77.4375 26.3125 C49.74937374 26.02009899 22.03337639 18.47160074 0 1 C0 0.67 0 0.34 0 0 Z " fill="#D5E7F8" transform="translate(220,297)"/>
<path d="M0 0 C3.78301227 1.56943684 6.17256547 3.93101277 9.04394531 6.81689453 C9.53220795 7.30486511 10.02047058 7.79283569 10.52352905 8.29559326 C12.12984962 9.90330275 13.72897713 11.51797101 15.328125 13.1328125 C16.44298317 14.25140235 17.55828487 15.36955029 18.67401123 16.48727417 C21.60470609 19.42559325 24.52934422 22.36986955 27.45275879 25.31542969 C30.43882725 28.32198262 33.43058859 31.32285882 36.421875 34.32421875 C42.28683456 40.21060686 48.14540732 46.103301 54 52 C50.61833266 56.01291728 47.20369863 59.92096585 43.4765625 63.62109375 C42.28740234 64.80541992 42.28740234 64.80541992 41.07421875 66.01367188 C39.86185547 67.2134668 39.86185547 67.2134668 38.625 68.4375 C37.37783203 69.67790039 37.37783203 69.67790039 36.10546875 70.94335938 C34.0725896 72.96455531 32.03740037 74.98336335 30 77 C26.21698773 75.43056316 23.82743453 73.06898723 20.95605469 70.18310547 C20.46779205 69.69513489 19.97952942 69.20716431 19.47647095 68.70440674 C17.87015038 67.09669725 16.27102287 65.48202899 14.671875 63.8671875 C13.55701683 62.74859765 12.44171513 61.63044971 11.32598877 60.51272583 C8.39529391 57.57440675 5.47065578 54.63013045 2.54724121 51.68457031 C-0.43882725 48.67801738 -3.43058859 45.67714118 -6.421875 42.67578125 C-12.28683456 36.78939314 -18.14540732 30.896699 -24 25 C-20.61833266 20.98708272 -17.20369863 17.07903415 -13.4765625 13.37890625 C-12.68378906 12.58935547 -11.89101562 11.79980469 -11.07421875 10.98632812 C-10.26597656 10.18646484 -9.45773438 9.38660156 -8.625 8.5625 C-7.79355469 7.73556641 -6.96210937 6.90863281 -6.10546875 6.05664062 C-4.0725896 4.03544469 -2.03740037 2.01663665 0 0 Z " fill="#FB9D00" transform="translate(100,340)"/>
<path d="M0 0 C0 0.33 0 0.66 0 1 C-46.86 1 -93.72 1 -142 1 C-107.29260198 -33.70739802 -36.54526252 -27.77117967 0 0 Z " fill="#D5E6F7" transform="translate(367,94)"/>
<path d="M0 0 C3.67915889 1.70630453 5.7541741 3.68068441 8.4375 6.75 C9.22898438 7.64847656 10.02046875 8.54695313 10.8359375 9.47265625 C12.44770004 11.35498542 14.01895695 13.25019597 15.5625 15.1875 C18.73545428 18.84860109 22.29333518 21.89304898 26 25 C26.60972656 25.51304687 27.21945313 26.02609375 27.84765625 26.5546875 C29.22691081 27.70895728 30.61266808 28.85545117 32 30 C31.41799126 33.2648744 30.4813186 34.88873979 28.13256836 37.20800781 C27.53202133 37.80832825 26.9314743 38.40864868 26.31272888 39.02716064 C25.66167679 39.66272888 25.01062469 40.29829712 24.33984375 40.953125 C23.67537735 41.61334656 23.01091095 42.27356812 22.3263092 42.95379639 C20.20364437 45.0596764 18.07078395 47.15488328 15.9375 49.25 C14.49606066 50.67639232 13.05529691 52.1034677 11.61523438 53.53125 C8.08461168 57.02880594 4.54480947 60.51682565 1 64 C-1.85779017 62.70280076 -3.91008536 61.3363174 -6.11621094 59.11083984 C-6.69651062 58.5303891 -7.2768103 57.94993835 -7.87469482 57.35189819 C-8.48838928 56.72788116 -9.10208374 56.10386414 -9.734375 55.4609375 C-10.37240051 54.82008209 -11.01042603 54.17922668 -11.66778564 53.51895142 C-13.69994069 51.47562179 -15.72502218 49.42544018 -17.75 47.375 C-19.1284453 45.9865214 -20.50734636 44.5984951 -21.88671875 43.2109375 C-25.26311894 39.81251303 -28.63319288 36.40792746 -32 33 C-28.10023279 28.33125463 -24.04785356 23.90872191 -19.7265625 19.62890625 C-19.15795502 19.06171371 -18.58934753 18.49452118 -18.00350952 17.91014099 C-16.21303764 16.12520087 -14.41909516 14.34379744 -12.625 12.5625 C-11.39950677 11.34203061 -10.17424428 10.12132947 -8.94921875 8.90039062 C-5.96880226 5.93091244 -2.98527106 2.96459743 0 0 Z " fill="#095F7B" transform="translate(154,307)"/>
<path d="M0 0 C1.40053368 -0.01485695 1.40053368 -0.01485695 2.82936096 -0.03001404 C4.355261 -0.02326157 4.355261 -0.02326157 5.9119873 -0.01637268 C6.98879257 -0.02323593 8.06559784 -0.03009918 9.17503357 -0.03717041 C12.73787586 -0.05548649 16.30027987 -0.05159425 19.86315918 -0.0459137 C22.33650863 -0.05047285 24.8098568 -0.05577762 27.28320312 -0.0617981 C32.46827337 -0.07073844 37.65318966 -0.06829508 42.83825684 -0.05836487 C49.49003737 -0.04686839 56.14108301 -0.06709253 62.79282379 -0.09628201 C67.90056749 -0.11460733 73.00818322 -0.11435893 78.11595154 -0.10864449 C80.56880945 -0.10849085 83.02167582 -0.11456964 85.47450256 -0.12693596 C88.90061967 -0.14177603 92.32574546 -0.13121968 95.75183105 -0.11402893 C96.76909775 -0.1236969 97.78636444 -0.13336487 98.8344574 -0.14332581 C105.66684882 -0.07136323 105.66684882 -0.07136323 108.95800781 2.20028687 C111.00850965 5.46489803 110.93711638 7.62194636 110.33190918 11.38768005 C108.18808565 13.88186799 106.43162859 15.203205 103.14579773 15.75439453 C100.36900508 15.91003134 97.61889516 15.92792638 94.83776855 15.90525818 C93.25401176 15.91577209 93.25401176 15.91577209 91.63825989 15.92649841 C88.15045827 15.94409399 84.66346896 15.93244944 81.17565918 15.91893005 C78.75097498 15.9216245 76.32629183 15.92550652 73.90161133 15.93052673 C68.82081817 15.93642393 63.74030635 15.92785129 58.6595459 15.90916443 C52.14580643 15.88637524 45.63272621 15.89949707 39.11901093 15.92345428 C34.11243723 15.93790598 29.10601992 15.93330905 24.09944153 15.92294312 C21.69765647 15.92027412 19.29585724 15.92355163 16.89408875 15.93286133 C13.53769298 15.94301606 10.18236594 15.92753939 6.8260498 15.90525818 C5.33595146 15.91740356 5.33595146 15.91740356 3.81575012 15.92979431 C-0.54359983 15.87616111 -2.99957371 15.79634193 -6.78466797 13.48252869 C-8.83177631 11.20561986 -9.32935471 10.3403835 -9.23059082 7.32518005 C-8.66809082 3.38768005 -8.66809082 3.38768005 -6.92469025 1.66581631 C-4.36814781 0.21779255 -2.91822641 0.00875787 0 0 Z " fill="#000404" transform="translate(272.6680908203125,244.61231994628906)"/>
<path d="M0 0 C1.92736244 -0.01891296 1.92736244 -0.01891296 3.8936615 -0.03820801 C5.29312692 -0.03104742 6.69258733 -0.02284324 8.09204102 -0.01367188 C9.53166465 -0.0163677 10.97128651 -0.02025088 12.41090393 -0.02526855 C15.4262935 -0.03116137 18.44120862 -0.02260966 21.45654297 -0.00390625 C25.31481246 0.0188636 29.17196773 0.00577275 33.03019619 -0.01819611 C36.00287713 -0.032678 38.97529568 -0.028037 41.9479847 -0.01768494 C43.37009883 -0.01502314 44.79223706 -0.01826816 46.21432304 -0.02760315 C48.20537716 -0.03780374 50.19651514 -0.01948947 52.1875 0 C53.31905014 0.00318237 54.45060028 0.00636475 55.61643982 0.00964355 C59.3533248 0.63360425 61.03169181 1.82218117 63.65844727 4.51757812 C64.22094727 8.01757812 64.22094727 8.01757812 63.65844727 11.51757812 C61.48908944 14.42373878 60.30742662 15.40620292 56.69873047 16.0255127 C54.971427 16.03028625 54.971427 16.03028625 53.20922852 16.03515625 C51.24699341 16.05406921 51.24699341 16.05406921 49.24511719 16.07336426 C47.8203884 16.06620445 46.39566452 16.05800047 44.97094727 16.04882812 C43.5065078 16.05152361 42.04207007 16.05540651 40.57763672 16.0604248 C37.51097546 16.06631731 34.44478078 16.05776559 31.37817383 16.0390625 C27.4503109 16.01627223 23.52354121 16.02939676 19.59571838 16.05335236 C16.5724669 16.06781753 13.54947394 16.06320124 10.5262146 16.05284119 C9.0781542 16.05017585 7.6300702 16.05343695 6.18203735 16.0627594 C4.15725157 16.07293472 2.13238332 16.05467145 0.10766602 16.03515625 C-1.04386963 16.03197388 -2.19540527 16.0287915 -3.38183594 16.0255127 C-6.98995321 15.40630227 -8.17557241 14.42617564 -10.34155273 11.51757812 C-10.8948728 7.64433767 -11.08905575 5.51723478 -8.70664978 2.33117676 C-5.63499117 -0.02422589 -3.84792614 0.01082953 0 0 Z " fill="#000404" transform="translate(274.341552734375,206.482421875)"/>
<path d="M0 0 C3.4375 0.625 3.4375 0.625 5.875 2.25 C8.00467763 5.48710999 7.97788971 6.75175401 7.4375 10.625 C5.66139808 14.16429583 3.45634431 17.3875721 1.234375 20.66015625 C0.60017639 21.61643417 -0.03402222 22.5727121 -0.68743896 23.55796814 C-2.71636721 26.60987744 -4.76435431 29.64846344 -6.8125 32.6875 C-8.17699052 34.73682556 -9.54028576 36.78694751 -10.90234375 38.83789062 C-24.52901528 59.28676864 -24.52901528 59.28676864 -29 60.75 C-32.5625 60.625 -32.5625 60.625 -35.5 58.5625 C-38.03190782 54.95644947 -38.21334901 53.96193409 -37.5625 49.625 C-35.79612324 46.16628064 -33.60736214 43.02994119 -31.39453125 39.84375 C-30.44679085 38.44618469 -30.44679085 38.44618469 -29.47990417 37.02038574 C-27.45778805 34.04625604 -25.41638166 31.08592946 -23.375 28.125 C-22.01897963 26.1323283 -20.66414818 24.13884699 -19.31054688 22.14453125 C-18.00626307 20.23105147 -16.70095749 18.31826768 -15.39453125 16.40625 C-14.78599808 15.51546753 -14.1774649 14.62468506 -13.55049133 13.70690918 C-4.65841892 0.81726648 -4.65841892 0.81726648 0 0 Z " fill="#000404" transform="translate(278.5625,124.375)"/>
<path d="M0 0 C4.46128037 1.77021178 7.60330192 5.53854246 10.88574219 8.92285156 C11.65660156 9.67050781 12.42746094 10.41816406 13.22167969 11.18847656 C19.37506689 17.40686433 19.37506689 17.40686433 20.18652344 21.62207031 C19.99463282 25.08889407 19.7321406 26.07645315 17.32324219 28.48535156 C16.68 29.13890625 16.03675781 29.79246094 15.37402344 30.46582031 C14.59414063 31.23539063 13.81425781 32.00496094 13.01074219 32.79785156 C12.04207741 33.85295001 11.07748699 34.9117983 10.11621094 35.97363281 C9.08241802 37.08297778 8.04725908 38.19105131 7.01074219 39.29785156 C6.52516846 39.83885498 6.03959473 40.3798584 5.53930664 40.93725586 C2.77940796 43.79275137 1.27737725 44.76396202 -2.70800781 45.27050781 C-5.98925781 44.79785156 -5.98925781 44.79785156 -8.48925781 42.73535156 C-9.98925781 39.79785156 -9.98925781 39.79785156 -10.30175781 36.54785156 C-8.585865 31.64530066 -5.70036174 29.26762312 -1.82519531 25.91113281 C0.22740073 24.00880259 0.22740073 24.00880259 0.03417969 21.76660156 C-1.26394446 19.26944671 -2.87568482 17.83850217 -4.98925781 15.98535156 C-7.82643691 13.23507705 -8.94488415 11.92252043 -10.30175781 8.11035156 C-9.98925781 4.79785156 -9.98925781 4.79785156 -7.98925781 1.79785156 C-4.89318693 -0.26619569 -3.61323399 -0.65194069 0 0 Z " fill="#000404" transform="translate(310.9892578125,132.2021484375)"/>
<path d="M0 0 C2 1.625 2 1.625 3 4 C3.24425694 7.11427602 3.27575209 8.25552492 2 11 C-0.26438461 13.47327618 -2.62966956 15.69154456 -5.1640625 17.88671875 C-7.21665854 19.78904897 -7.21665854 19.78904897 -7.0234375 22.03125 C-5.72531335 24.52840485 -4.113573 25.95934939 -2 27.8125 C0.85445866 30.57454813 1.94356307 31.83351105 3.25 35.6875 C3 39 3 39 1.5 41.9375 C-1 44 -1 44 -4.0703125 44.6640625 C-10.16324139 43.63444231 -13.1983 39.78004951 -17.375 35.4375 C-18.19355469 34.63763672 -19.01210937 33.83777344 -19.85546875 33.01367188 C-26.39174036 26.37442418 -26.39174036 26.37442418 -27.2109375 22.14453125 C-26.97889467 18.68537429 -26.66085 17.66085 -24.25 15.25 C-23.61191406 14.59386719 -22.97382813 13.93773437 -22.31640625 13.26171875 C-21.55199219 12.51535156 -20.78757813 11.76898438 -20 11 C-19.04877756 10.02930319 -18.09967378 9.05652713 -17.15234375 8.08203125 C-7.55053666 -1.72205222 -7.55053666 -1.72205222 0 0 Z " fill="#000404" transform="translate(223,133)"/>
<path d="M0 0 C0.93691177 -0.00619858 1.87382355 -0.01239716 2.83912659 -0.01878357 C4.81860313 -0.02588053 6.79813937 -0.02270987 8.77758789 -0.01000977 C11.80271602 0.00384356 14.82474311 -0.03020081 17.84960938 -0.06835938 C19.77474034 -0.06931072 21.69987517 -0.06745093 23.625 -0.0625 C24.52721786 -0.07575821 25.42943573 -0.08901642 26.35899353 -0.10267639 C30.83091249 -0.03655228 32.80130018 0.13681825 36.48852539 2.87915039 C38.37890625 5.56640625 38.37890625 5.56640625 38.37890625 9.19140625 C37.39341023 12.51745531 37.02368324 13.53035321 34.37890625 15.56640625 C32.37464905 15.9540863 32.37464905 15.9540863 30.06274414 15.97045898 C28.76108055 15.98948524 28.76108055 15.98948524 27.43312073 16.00889587 C26.49870651 16.00596024 25.5642923 16.0030246 24.6015625 16 C23.63866806 16.00524185 22.67577362 16.0104837 21.68370056 16.0158844 C19.64697229 16.02230876 17.61020694 16.02096226 15.57348633 16.01245117 C12.45652154 16.00394749 9.34139273 16.0326869 6.22460938 16.06445312 C4.2460943 16.06606536 2.26757598 16.06548718 0.2890625 16.0625 C-1.10952248 16.07935097 -1.10952248 16.07935097 -2.53636169 16.09654236 C-8.9628477 16.0273213 -8.9628477 16.0273213 -12.20922852 13.75415039 C-14.29254365 10.52596658 -14.15742624 8.32073369 -13.62109375 4.56640625 C-10.20881799 -0.64376656 -5.65576516 -0.03102251 0 0 Z " fill="#000505" transform="translate(427.62109375,206.43359375)"/>
<path d="M0 0 C1.13901512 -0.00574036 1.13901512 -0.00574036 2.30104065 -0.01159668 C3.90391366 -0.01431343 5.50683118 -0.00696863 7.10961914 0.00976562 C9.55521226 0.03115211 11.99785825 0.00997461 14.44335938 -0.015625 C16.0039127 -0.0129811 17.5644642 -0.00785482 19.125 0 C20.21584145 -0.01214539 20.21584145 -0.01214539 21.32872009 -0.02453613 C24.9130339 0.04120556 27.01294959 0.46029159 30.09399414 2.34570312 C32.12890625 4.53125 32.12890625 4.53125 32.69140625 8.03125 C32.02827688 12.15738828 31.45709482 13.08900104 28.12890625 15.53125 C25.28786793 15.92917556 22.84208331 16.09296751 20.00390625 16.0625 C19.21999512 16.0663269 18.43608398 16.07015381 17.62841797 16.07409668 C15.97427076 16.07681353 14.32008042 16.0694681 12.66601562 16.05273438 C10.13704463 16.03131892 7.61091411 16.05254097 5.08203125 16.078125 C3.47264999 16.07548168 1.8632705 16.07035661 0.25390625 16.0625 C-0.50035645 16.07059692 -1.25461914 16.07869385 -2.03173828 16.08703613 C-5.50278693 16.02518016 -7.51376314 15.79304821 -10.34765625 13.71679688 C-12.58261906 10.51048485 -12.41561784 8.34291863 -11.87109375 4.53125 C-8.67054586 -0.01296962 -5.18673151 -0.05758857 0 0 Z " fill="#000404" transform="translate(365.87109375,206.46875)"/>
<path d="M0 0 C1.216875 -0.01933594 2.43375 -0.03867188 3.6875 -0.05859375 C7 0.4375 7 0.4375 9.4375 2.2109375 C11.17908062 4.69268989 11.45398455 5.55477525 11 8.5 C10.9175 9.17160156 10.835 9.84320313 10.75 10.53515625 C9.69547724 13.2099093 8.50345523 14.04810353 6 15.4375 C0.66988985 16.25131324 -4.33081246 16.20789425 -9.25 13.9375 C-11.89274485 10.16215021 -11.65087039 7.99359272 -11 3.4375 C-7.75417475 -0.05434135 -4.60136244 0.00487432 0 0 Z " fill="#000606" transform="translate(410,244.5625)"/>
<path d="M0 0 C2.1754786 1.5976956 2.90443826 2.48284234 3.3984375 5.15625 C3.39070313 5.9296875 3.38296875 6.703125 3.375 7.5 C3.38273437 8.2734375 3.39046875 9.046875 3.3984375 9.84375 C2.90458621 12.516357 2.16721615 13.39465471 0 15 C-4.39347757 15.65088557 -6.30998011 15.47438867 -10 12.9375 C-12 10 -12 10 -12.0625 6.375 C-11 3 -11 3 -9.375 1.0625 C-6.06762954 -0.4171131 -3.57993132 -0.39053796 0 0 Z " fill="#000303" transform="translate(508,166)"/>
<path d="M0 0 C1.875 1.125 1.875 1.125 3 3 C3.49125459 6.85985753 3.56021138 9.08965651 1.5 12.4375 C-2.27828899 14.79893062 -4.57790439 14.56153595 -9 14 C-11 12.4375 -11 12.4375 -12 10 C-12.64052288 3.91503268 -12.64052288 3.91503268 -10.6875 1.125 C-6.9389032 -1.37406453 -4.21974105 -1.05493526 0 0 Z " fill="#000203" transform="translate(133,208)"/>
</svg>
