<?xml version="1.0" encoding="UTF-8"?>
<svg version="1.1" xmlns="http://www.w3.org/2000/svg" width="512" height="512">
<path d="M0 0 C1.3489606 -0.00211385 2.69791991 -0.00536686 4.046875 -0.00976562 C23.08819112 0.09392471 23.08819112 0.09392471 30.125 6.3125 C33.51009289 10.96304818 34.56917183 15.34805758 34.55859375 21.0390625 C32.24266668 33.18203148 18.53094895 43.03742229 10.09223938 51.42042542 C8.1145051 53.38522182 6.14006508 55.3532783 4.16638184 57.32214355 C-0.01124431 61.48844581 -4.19284204 65.65074749 -8.375 69.8125 C-13.25237078 74.66624684 -18.12808815 79.52163175 -22.99964905 84.38121033 C-24.94593634 86.32101236 -26.89520499 88.25778433 -28.84460449 90.19445801 C-30.02871081 91.37493459 -31.21267852 92.55555023 -32.39648438 93.73632812 C-33.21144882 94.54354309 -33.21144882 94.54354309 -34.0428772 95.36706543 C-36.80395142 98.07849142 -36.80395142 98.07849142 -38.875 101.3125 C-38.82023276 111.70458368 -37.54862418 122.11782974 -36.4375 132.4375 C-36.31536133 133.59886475 -36.19322266 134.76022949 -36.06738281 135.95678711 C-35.1793743 144.295726 -35.1793743 144.295726 -32.875 152.3125 C-29.8014986 154.36150093 -28.52012323 154.67744553 -24.96484375 155.09375 C-23.98314209 155.21258545 -23.00144043 155.3314209 -21.98999023 155.45385742 C-20.41713257 155.6313855 -20.41713257 155.6313855 -18.8125 155.8125 C-17.74008057 155.93923096 -16.66766113 156.06596191 -15.56274414 156.1965332 C-13.37690483 156.45331769 -11.19061974 156.7063358 -9.00390625 156.95556641 C-6.17853736 157.27787362 -3.35478758 157.61131823 -0.53125 157.94921875 C1.04158231 158.1335338 2.61449387 158.31717438 4.1875 158.5 C4.89334229 158.58378906 5.59918457 158.66757813 6.32641602 158.75390625 C8.25614009 158.97021063 10.19064944 159.14246919 12.125 159.3125 C13.27871094 159.47363281 14.43242187 159.63476562 15.62109375 159.80078125 C24.67854601 158.53859448 32.9495749 146.55971805 39.20846558 140.21250343 C41.22404851 138.16999449 43.24422229 136.13213311 45.26586914 134.09562683 C51.00842259 128.31059688 56.7481408 122.52284476 62.47167969 116.71899414 C65.98648971 113.15553686 69.51109723 109.60202794 73.04220581 106.05472374 C74.3790357 104.70803564 75.71221185 103.35770975 77.04153442 102.00361061 C78.9025762 100.10863447 80.7758845 98.22661742 82.65234375 96.34692383 C83.19075897 95.79255646 83.72917419 95.23818909 84.28390503 94.66702271 C88.63693131 90.34785657 93.52658082 87.08684337 99.59375 85.78125 C105.17961575 85.8671864 109.56069013 86.99017921 114.125 90.3125 C121.21982302 98.34085236 120.51401954 109.5245612 120.5 119.625 C120.49918427 120.61635956 120.49918427 120.61635956 120.49835205 121.62774658 C120.37405837 154.58744697 107.85928023 183.49554196 84.875 207 C66.19741162 225.45510534 42.84827052 236.02028567 17.125 240.3125 C16.33996094 240.44527344 15.55492187 240.57804688 14.74609375 240.71484375 C-0.73460541 242.85922902 -17.80379589 241.66191625 -32.640625 236.80078125 C-35.2525308 236.22999764 -36.42645525 236.23611003 -38.875 237.3125 C-41.07991984 239.33522465 -41.07991984 239.33522465 -43.1875 241.875 C-43.97769531 242.78378906 -44.76789063 243.69257813 -45.58203125 244.62890625 C-46.33871094 245.51449219 -47.09539062 246.40007812 -47.875 247.3125 C-49.04007622 248.6472233 -50.20659897 249.98068623 -51.375 251.3125 C-51.93445313 251.95445312 -52.49390625 252.59640625 -53.0703125 253.2578125 C-57.39538679 258.18203129 -61.81071436 263.02654611 -66.203125 267.890625 C-69.61805638 271.67724959 -73.02486526 275.46833617 -76.375 279.3125 C-81.24643203 284.90229989 -86.2339515 290.38784898 -91.203125 295.890625 C-94.61805638 299.67724959 -98.02486526 303.46833617 -101.375 307.3125 C-106.24643203 312.90229989 -111.2339515 318.38784898 -116.203125 323.890625 C-119.61805638 327.67724959 -123.02486526 331.46833617 -126.375 335.3125 C-131.24643203 340.90229989 -136.2339515 346.38784898 -141.203125 351.890625 C-144.61805638 355.67724959 -148.02486526 359.46833617 -151.375 363.3125 C-156.24643203 368.90229989 -161.2339515 374.38784898 -166.203125 379.890625 C-169.61805638 383.67724959 -173.02486526 387.46833617 -176.375 391.3125 C-181.24643203 396.90229989 -186.2339515 402.38784898 -191.203125 407.890625 C-194.61805638 411.67724959 -198.02486526 415.46833617 -201.375 419.3125 C-206.24643203 424.90229989 -211.2339515 430.38784898 -216.203125 435.890625 C-219.61805638 439.67724959 -223.02486526 443.46833617 -226.375 447.3125 C-231.24643203 452.90229989 -236.2339515 458.38784898 -241.203125 463.890625 C-244.57885022 467.63377609 -247.94637435 471.38046472 -251.25 475.1875 C-267.06493242 493.26692621 -283.25732285 510.58041122 -308.73144531 512.53125 C-330.17921854 513.60531689 -349.86184848 510.3894959 -366.375 495.75 C-367.88441272 494.28043977 -369.38538025 492.80211975 -370.875 491.3125 C-371.80699219 490.50425781 -371.80699219 490.50425781 -372.7578125 489.6796875 C-383.66006874 479.95076825 -390.95822769 462.92461493 -392.09814453 448.48608398 C-392.89674977 427.28847344 -390.26677548 407.74324975 -375.74169922 391.35302734 C-373.50875147 388.94614311 -371.20548186 386.62548575 -368.875 384.3125 C-368.22273438 383.63574219 -367.57046875 382.95898438 -366.8984375 382.26171875 C-363.44692079 378.70775976 -359.79281029 375.43018548 -356.04296875 372.1953125 C-353.62657049 370.0967468 -351.24970976 367.958103 -348.875 365.8125 C-345.91630249 363.14201656 -342.94573528 360.48951942 -339.9375 357.875 C-336.70940488 355.06427475 -333.53761557 352.196701 -330.375 349.3125 C-326.58565874 345.85674587 -322.76416302 342.4472711 -318.89453125 339.08203125 C-314.84834911 335.53673046 -310.86756813 331.91791001 -306.875 328.3125 C-301.59240942 323.54216063 -296.29565865 318.79355593 -290.9296875 314.1171875 C-286.87530997 310.55611827 -282.8798707 306.9290196 -278.875 303.3125 C-273.59240942 298.54216063 -268.29565865 293.79355593 -262.9296875 289.1171875 C-258.87530997 285.55611827 -254.8798707 281.9290196 -250.875 278.3125 C-245.59240942 273.54216063 -240.29565865 268.79355593 -234.9296875 264.1171875 C-230.87530997 260.55611827 -226.8798707 256.9290196 -222.875 253.3125 C-217.59240942 248.54216063 -212.29565865 243.79355593 -206.9296875 239.1171875 C-202.87530997 235.55611827 -198.8798707 231.9290196 -194.875 228.3125 C-189.59240942 223.54216063 -184.29565865 218.79355593 -178.9296875 214.1171875 C-174.87530997 210.55611827 -170.8798707 206.9290196 -166.875 203.3125 C-161.59240942 198.54216063 -156.29565865 193.79355593 -150.9296875 189.1171875 C-146.87530997 185.55611827 -142.8798707 181.9290196 -138.875 178.3125 C-122.19537325 163.2502916 -122.19537325 163.2502916 -115.875 158.3125 C-115.99617188 157.70664063 -116.11734375 157.10078125 -116.2421875 156.4765625 C-116.59630418 154.70597912 -116.94906341 152.93512395 -117.30078125 151.1640625 C-117.66303498 149.3651154 -118.03422488 147.56792324 -118.41796875 145.7734375 C-124.90742274 115.0339186 -119.31042734 82.52828874 -102.74609375 55.7734375 C-97.50375761 47.91462232 -91.40452751 41.09277741 -84.875 34.3125 C-84.00294922 33.34570312 -84.00294922 33.34570312 -83.11328125 32.359375 C-71.72677165 20.08374248 -55.57511923 11.34141691 -39.875 6 C-38.86324707 5.65437012 -38.86324707 5.65437012 -37.83105469 5.30175781 C-25.25967536 1.28434377 -13.15276757 -0.16150255 0 0 Z M-329.25 425.5 C-332.19977123 430.60537328 -333.22177141 435.23187157 -332.25 441.0625 C-329.99432381 446.39409826 -327.19113367 449.89607561 -321.875 452.3125 C-315.80583463 453.7054232 -311.37184819 453.38390963 -305.875 450.3125 C-305.38644531 449.79429687 -304.89789063 449.27609375 -304.39453125 448.7421875 C-302.50910515 446.96823904 -301.42381414 446.87093738 -298.875 446.6875 C-296.25058802 446.47873996 -294.42308025 446.16186008 -291.875 445.3125 C-290.81114517 442.12093552 -290.70822018 439.72752524 -290.6875 436.375 C-290.67332031 435.33472656 -290.65914062 434.29445313 -290.64453125 433.22265625 C-290.87528217 430.30893696 -291.11422128 428.64180602 -292.875 426.3125 C-294.79996403 425.79560314 -294.79996403 425.79560314 -297 425.875 C-300.72916983 425.64267153 -302.82219409 424.96417646 -305.875 422.8125 C-314.24757256 417.11449923 -322.06256214 418.87999145 -329.25 425.5 Z " fill="#02A8F2" transform="translate(391.875,-0.3125)"/>
<path d="M0 0 C1.3489606 -0.00211385 2.69791991 -0.00536686 4.046875 -0.00976562 C23.08819112 0.09392471 23.08819112 0.09392471 30.125 6.3125 C33.51009289 10.96304818 34.56917183 15.34805758 34.55859375 21.0390625 C32.24266668 33.18203148 18.53094895 43.03742229 10.09223938 51.42042542 C8.1145051 53.38522182 6.14006508 55.3532783 4.16638184 57.32214355 C-0.01124431 61.48844581 -4.19284204 65.65074749 -8.375 69.8125 C-13.25237078 74.66624684 -18.12808815 79.52163175 -22.99964905 84.38121033 C-24.94593634 86.32101236 -26.89520499 88.25778433 -28.84460449 90.19445801 C-30.02871081 91.37493459 -31.21267852 92.55555023 -32.39648438 93.73632812 C-33.21144882 94.54354309 -33.21144882 94.54354309 -34.0428772 95.36706543 C-36.80395142 98.07849142 -36.80395142 98.07849142 -38.875 101.3125 C-38.82023276 111.70458368 -37.54862418 122.11782974 -36.4375 132.4375 C-36.31536133 133.59886475 -36.19322266 134.76022949 -36.06738281 135.95678711 C-35.1793743 144.295726 -35.1793743 144.295726 -32.875 152.3125 C-29.8014986 154.36150093 -28.52012323 154.67744553 -24.96484375 155.09375 C-23.98314209 155.21258545 -23.00144043 155.3314209 -21.98999023 155.45385742 C-20.41713257 155.6313855 -20.41713257 155.6313855 -18.8125 155.8125 C-17.74008057 155.93923096 -16.66766113 156.06596191 -15.56274414 156.1965332 C-13.37690483 156.45331769 -11.19061974 156.7063358 -9.00390625 156.95556641 C-6.17853736 157.27787362 -3.35478758 157.61131823 -0.53125 157.94921875 C1.04158231 158.1335338 2.61449387 158.31717438 4.1875 158.5 C4.89334229 158.58378906 5.59918457 158.66757813 6.32641602 158.75390625 C8.25614009 158.97021063 10.19064944 159.14246919 12.125 159.3125 C13.27871094 159.47363281 14.43242187 159.63476562 15.62109375 159.80078125 C24.67854601 158.53859448 32.9495749 146.55971805 39.20846558 140.21250343 C41.22404851 138.16999449 43.24422229 136.13213311 45.26586914 134.09562683 C51.00842259 128.31059688 56.7481408 122.52284476 62.47167969 116.71899414 C65.98648971 113.15553686 69.51109723 109.60202794 73.04220581 106.05472374 C74.3790357 104.70803564 75.71221185 103.35770975 77.04153442 102.00361061 C78.9025762 100.10863447 80.7758845 98.22661742 82.65234375 96.34692383 C83.19075897 95.79255646 83.72917419 95.23818909 84.28390503 94.66702271 C88.63693131 90.34785657 93.52658082 87.08684337 99.59375 85.78125 C105.17961575 85.8671864 109.56069013 86.99017921 114.125 90.3125 C121.21982302 98.34085236 120.51401954 109.5245612 120.5 119.625 C120.49918427 120.61635956 120.49918427 120.61635956 120.49835205 121.62774658 C120.37405837 154.58744697 107.85928023 183.49554196 84.875 207 C66.19741162 225.45510534 42.84827052 236.02028567 17.125 240.3125 C16.33996094 240.44527344 15.55492187 240.57804688 14.74609375 240.71484375 C-0.73460541 242.85922902 -17.80379589 241.66191625 -32.640625 236.80078125 C-35.2525308 236.22999764 -36.42645525 236.23611003 -38.875 237.3125 C-41.07991984 239.33522465 -41.07991984 239.33522465 -43.1875 241.875 C-43.97769531 242.78378906 -44.76789063 243.69257813 -45.58203125 244.62890625 C-46.33871094 245.51449219 -47.09539062 246.40007812 -47.875 247.3125 C-49.04007622 248.6472233 -50.20659897 249.98068623 -51.375 251.3125 C-51.93445313 251.95445312 -52.49390625 252.59640625 -53.0703125 253.2578125 C-57.39538679 258.18203129 -61.81071436 263.02654611 -66.203125 267.890625 C-69.61805638 271.67724959 -73.02486526 275.46833617 -76.375 279.3125 C-81.24643203 284.90229989 -86.2339515 290.38784898 -91.203125 295.890625 C-94.61805638 299.67724959 -98.02486526 303.46833617 -101.375 307.3125 C-106.24643203 312.90229989 -111.2339515 318.38784898 -116.203125 323.890625 C-119.61805638 327.67724959 -123.02486526 331.46833617 -126.375 335.3125 C-131.24643203 340.90229989 -136.2339515 346.38784898 -141.203125 351.890625 C-144.61805638 355.67724959 -148.02486526 359.46833617 -151.375 363.3125 C-156.24643203 368.90229989 -161.2339515 374.38784898 -166.203125 379.890625 C-169.61805638 383.67724959 -173.02486526 387.46833617 -176.375 391.3125 C-181.24643203 396.90229989 -186.2339515 402.38784898 -191.203125 407.890625 C-194.61805638 411.67724959 -198.02486526 415.46833617 -201.375 419.3125 C-206.24643203 424.90229989 -211.2339515 430.38784898 -216.203125 435.890625 C-219.61805638 439.67724959 -223.02486526 443.46833617 -226.375 447.3125 C-231.24643203 452.90229989 -236.2339515 458.38784898 -241.203125 463.890625 C-244.57885022 467.63377609 -247.94637435 471.38046472 -251.25 475.1875 C-267.06493242 493.26692621 -283.25732285 510.58041122 -308.73144531 512.53125 C-330.17921854 513.60531689 -349.86184848 510.3894959 -366.375 495.75 C-367.88441272 494.28043977 -369.38538025 492.80211975 -370.875 491.3125 C-371.80699219 490.50425781 -371.80699219 490.50425781 -372.7578125 489.6796875 C-383.66006874 479.95076825 -390.95822769 462.92461493 -392.09814453 448.48608398 C-392.89674977 427.28847344 -390.26677548 407.74324975 -375.74169922 391.35302734 C-373.50875147 388.94614311 -371.20548186 386.62548575 -368.875 384.3125 C-368.22273438 383.63574219 -367.57046875 382.95898438 -366.8984375 382.26171875 C-363.44692079 378.70775976 -359.79281029 375.43018548 -356.04296875 372.1953125 C-353.62657049 370.0967468 -351.24970976 367.958103 -348.875 365.8125 C-345.91630249 363.14201656 -342.94573528 360.48951942 -339.9375 357.875 C-336.70940488 355.06427475 -333.53761557 352.196701 -330.375 349.3125 C-326.58565874 345.85674587 -322.76416302 342.4472711 -318.89453125 339.08203125 C-314.84834911 335.53673046 -310.86756813 331.91791001 -306.875 328.3125 C-301.59240942 323.54216063 -296.29565865 318.79355593 -290.9296875 314.1171875 C-286.87530997 310.55611827 -282.8798707 306.9290196 -278.875 303.3125 C-273.59240942 298.54216063 -268.29565865 293.79355593 -262.9296875 289.1171875 C-258.87530997 285.55611827 -254.8798707 281.9290196 -250.875 278.3125 C-245.59240942 273.54216063 -240.29565865 268.79355593 -234.9296875 264.1171875 C-230.87530997 260.55611827 -226.8798707 256.9290196 -222.875 253.3125 C-217.59240942 248.54216063 -212.29565865 243.79355593 -206.9296875 239.1171875 C-202.87530997 235.55611827 -198.8798707 231.9290196 -194.875 228.3125 C-189.59240942 223.54216063 -184.29565865 218.79355593 -178.9296875 214.1171875 C-174.87530997 210.55611827 -170.8798707 206.9290196 -166.875 203.3125 C-161.59240942 198.54216063 -156.29565865 193.79355593 -150.9296875 189.1171875 C-146.87530997 185.55611827 -142.8798707 181.9290196 -138.875 178.3125 C-122.19537325 163.2502916 -122.19537325 163.2502916 -115.875 158.3125 C-115.99617188 157.70664063 -116.11734375 157.10078125 -116.2421875 156.4765625 C-116.59630418 154.70597912 -116.94906341 152.93512395 -117.30078125 151.1640625 C-117.66303498 149.3651154 -118.03422488 147.56792324 -118.41796875 145.7734375 C-124.90742274 115.0339186 -119.31042734 82.52828874 -102.74609375 55.7734375 C-97.50375761 47.91462232 -91.40452751 41.09277741 -84.875 34.3125 C-84.00294922 33.34570312 -84.00294922 33.34570312 -83.11328125 32.359375 C-71.72677165 20.08374248 -55.57511923 11.34141691 -39.875 6 C-38.86324707 5.65437012 -38.86324707 5.65437012 -37.83105469 5.30175781 C-25.25967536 1.28434377 -13.15276757 -0.16150255 0 0 Z M-78.49951172 52.734375 C-98.60185916 75.79819713 -104.28891379 103.45368753 -102.875 133.3125 C-102.19767251 139.88244458 -100.35498927 146.03653077 -98.1875 152.25 C-96.85076425 156.16627446 -96.11647209 159.14059649 -96.875 163.3125 C-102.69264672 172.45177339 -112.676058 179.426534 -120.78125 186.46875 C-123.33919027 188.72126457 -125.8567898 191.01567092 -128.375 193.3125 C-132.16434126 196.76825413 -135.98583698 200.1777289 -139.85546875 203.54296875 C-143.90165089 207.08826954 -147.88243187 210.70708999 -151.875 214.3125 C-157.15759058 219.08283937 -162.45434135 223.83144407 -167.8203125 228.5078125 C-171.87469003 232.06888173 -175.8701293 235.6959804 -179.875 239.3125 C-185.15759058 244.08283937 -190.45434135 248.83144407 -195.8203125 253.5078125 C-199.87469003 257.06888173 -203.8701293 260.6959804 -207.875 264.3125 C-213.15759058 269.08283937 -218.45434135 273.83144407 -223.8203125 278.5078125 C-227.87469003 282.06888173 -231.8701293 285.6959804 -235.875 289.3125 C-241.15759058 294.08283937 -246.45434135 298.83144407 -251.8203125 303.5078125 C-255.87469003 307.06888173 -259.8701293 310.6959804 -263.875 314.3125 C-269.15759058 319.08283937 -274.45434135 323.83144407 -279.8203125 328.5078125 C-283.87469003 332.06888173 -287.8701293 335.6959804 -291.875 339.3125 C-297.15759058 344.08283937 -302.45434135 348.83144407 -307.8203125 353.5078125 C-311.87469003 357.06888173 -315.8701293 360.6959804 -319.875 364.3125 C-325.15759058 369.08283937 -330.45434135 373.83144407 -335.8203125 378.5078125 C-339.00618142 381.30604718 -342.15282965 384.14711579 -345.296875 386.9921875 C-347.00530466 388.52977419 -348.72400913 390.05602618 -350.453125 391.5703125 C-363.84083671 403.3564268 -373.42023482 415.88240501 -375.26171875 434.1484375 C-376.15171884 449.87115686 -371.34557291 464.46638124 -360.875 476.3125 C-360.32070313 476.96347656 -359.76640625 477.61445313 -359.1953125 478.28515625 C-351.14573941 487.04725136 -341.22560706 491.41646034 -329.875 494.3125 C-329.22917969 494.50328125 -328.58335937 494.6940625 -327.91796875 494.890625 C-313.27519873 497.91437101 -298.15893713 493.19087511 -285.75390625 485.4609375 C-278.12355381 479.76664464 -271.73873833 472.52496198 -265.58203125 465.3046875 C-263.55297626 462.93668282 -261.46652427 460.62547978 -259.375 458.3125 C-256.70451656 455.35380249 -254.05201942 452.38323528 -251.4375 449.375 C-247.78562947 445.18085635 -244.03233816 441.08155708 -240.28515625 436.97265625 C-237.70261116 434.12222966 -235.16844897 431.23424108 -232.64453125 428.33203125 C-228.33630252 423.41513444 -223.92813844 418.58610968 -219.546875 413.734375 C-216.13194362 409.94775041 -212.72513474 406.15666383 -209.375 402.3125 C-204.50356797 396.72270011 -199.5160485 391.23715102 -194.546875 385.734375 C-191.13194362 381.94775041 -187.72513474 378.15666383 -184.375 374.3125 C-179.50356797 368.72270011 -174.5160485 363.23715102 -169.546875 357.734375 C-166.13194362 353.94775041 -162.72513474 350.15666383 -159.375 346.3125 C-154.50356797 340.72270011 -149.5160485 335.23715102 -144.546875 329.734375 C-141.13194362 325.94775041 -137.72513474 322.15666383 -134.375 318.3125 C-129.50356797 312.72270011 -124.5160485 307.23715102 -119.546875 301.734375 C-116.13194362 297.94775041 -112.72513474 294.15666383 -109.375 290.3125 C-104.50356797 284.72270011 -99.5160485 279.23715102 -94.546875 273.734375 C-91.13194362 269.94775041 -87.72513474 266.15666383 -84.375 262.3125 C-79.50356797 256.72270011 -74.5160485 251.23715102 -69.546875 245.734375 C-66.17114978 241.99122391 -62.80362565 238.24453528 -59.5 234.4375 C-44.63745923 217.36661001 -44.63745923 217.36661001 -40.84765625 217.09765625 C-36.3338728 217.3417645 -32.58701986 218.37075492 -28.3125 219.75 C-26.85392349 220.21039948 -25.3943007 220.66749888 -23.93359375 221.12109375 C-23.29736084 221.32532959 -22.66112793 221.52956543 -22.00561523 221.73999023 C4.06134371 228.74434668 31.80673935 221.26769638 54.625 208.4375 C59.95174962 205.29934968 64.57473909 201.48187211 69.125 197.3125 C70.49591797 196.08080078 70.49591797 196.08080078 71.89453125 194.82421875 C89.50973567 178.19448031 102.27950502 153.02009213 103.22998047 128.6171875 C103.31063751 125.51514794 103.35269182 122.41549605 103.375 119.3125 C103.38442627 118.29607422 103.39385254 117.27964844 103.40356445 116.23242188 C103.39715942 114.78706055 103.39715942 114.78706055 103.390625 113.3125 C103.38724121 112.013125 103.38724121 112.013125 103.38378906 110.6875 C103.10542947 108.13289419 102.31938597 106.5603375 101.125 104.3125 C100.59152954 104.84819107 100.05805908 105.38388214 99.50842285 105.93580627 C94.4511153 111.01325028 89.39133252 116.0882092 84.32883453 121.16047764 C81.7269914 123.76751289 79.12607556 126.37545874 76.52734375 128.9855957 C74.01381107 131.51008893 71.49775828 134.03204611 68.98002625 136.552351 C67.56492487 137.97016679 66.15236472 139.39051749 64.73986816 140.81092834 C60.22312107 145.32806298 55.64916362 149.69042198 50.80160522 153.8506012 C48.73171788 155.65541833 46.8249594 157.57679591 44.94140625 159.57421875 C44.24080078 160.30060547 43.54019531 161.02699219 42.81835938 161.77539062 C41.39378154 163.26264466 39.97711991 164.75752053 38.56835938 166.25976562 C32.8308956 172.16582338 27.60116818 175.68166179 19.35546875 176.84375 C18.00787576 176.86045361 16.65972431 176.84817245 15.3125 176.8125 C14.54768311 176.80259033 13.78286621 176.79268066 12.99487305 176.7824707 C3.77894255 176.51470178 -5.40026502 175.4778065 -14.5625 174.5 C-15.35653229 174.4175 -16.15056458 174.335 -16.96865845 174.25 C-19.27627322 174.00602416 -21.58149745 173.74602452 -23.88671875 173.48046875 C-24.57265106 173.40841721 -25.25858337 173.33636566 -25.96530151 173.26213074 C-34.23540707 172.26115761 -41.26104641 169.58355757 -46.875 163.3125 C-57.22133372 148.90498856 -56.04400579 121.14311198 -56.375 104.0625 C-56.42068115 102.89557617 -56.42068115 102.89557617 -56.46728516 101.70507812 C-56.47276485 93.39786823 -51.66258269 87.76127925 -46.00099182 82.08744812 C-45.39246872 81.49285294 -44.78394562 80.89825775 -44.15698242 80.28564453 C-43.50276306 79.63419968 -42.8485437 78.98275482 -42.17449951 78.31156921 C-40.03327169 76.18252378 -37.88182477 74.06411843 -35.73046875 71.9453125 C-34.23465794 70.46018686 -32.73965964 68.97424246 -31.24543762 67.48751831 C-27.32757103 63.59235019 -23.40162861 59.70543908 -19.47302246 55.82110596 C-13.16605235 49.58456107 -6.86682987 43.3402699 -0.57650185 37.08694077 C1.62398325 34.9032041 3.83075985 32.72596791 6.03804016 30.54910278 C7.37693728 29.22065875 8.7155893 27.89196762 10.05395508 26.56298828 C10.67259933 25.95624771 11.29124359 25.34950714 11.92863464 24.72438049 C13.36583848 23.29127284 14.75139697 21.80667774 16.125 20.3125 C16.125 19.6525 16.125 18.9925 16.125 18.3125 C-18.84195037 11.09802106 -55.09989853 27.10660481 -78.49951172 52.734375 Z " fill="#000001" transform="translate(391.875,-0.3125)"/>
<path d="M0 0 C5.94 1.485 5.94 1.485 12 3 C7.5973376 8.21367916 3.04208141 13.26910606 -1.55859375 18.30859375 C-3.56406364 20.51942375 -5.54276744 22.74663769 -7.5 25 C-10.28814098 28.20899244 -13.13528185 31.35916444 -16 34.5 C-19.45575413 38.28934126 -22.8652289 42.11083698 -26.23046875 45.98046875 C-30.53869748 50.89736556 -34.94686156 55.72639032 -39.328125 60.578125 C-42.74305638 64.36474959 -46.14986526 68.15583617 -49.5 72 C-54.37143203 77.58979989 -59.3589515 83.07534898 -64.328125 88.578125 C-67.74305638 92.36474959 -71.14986526 96.15583617 -74.5 100 C-79.37143203 105.58979989 -84.3589515 111.07534898 -89.328125 116.578125 C-92.74305638 120.36474959 -96.14986526 124.15583617 -99.5 128 C-104.37143203 133.58979989 -109.3589515 139.07534898 -114.328125 144.578125 C-117.74305638 148.36474959 -121.14986526 152.15583617 -124.5 156 C-129.37143203 161.58979989 -134.3589515 167.07534898 -139.328125 172.578125 C-142.74305638 176.36474959 -146.14986526 180.15583617 -149.5 184 C-154.37143203 189.58979989 -159.3589515 195.07534898 -164.328125 200.578125 C-167.74305638 204.36474959 -171.14986526 208.15583617 -174.5 212 C-179.37143203 217.58979989 -184.3589515 223.07534898 -189.328125 228.578125 C-192.74305638 232.36474959 -196.14986526 236.15583617 -199.5 240 C-200.66647593 241.3335002 -201.83315492 242.6668228 -203 244 C-204.06541016 245.22396484 -204.06541016 245.22396484 -205.15234375 246.47265625 C-215.66465987 258.38661452 -226.85380343 267.4945557 -243 270 C-240.15421516 267.06528438 -237.24308235 264.33241032 -234.125 261.6875 C-230.71665292 258.73147561 -227.75816461 255.5946427 -224.83984375 252.16015625 C-222.80931178 249.77611341 -220.72370708 247.44921806 -218.625 245.125 C-217.86703125 244.28453125 -217.1090625 243.4440625 -216.328125 242.578125 C-214.77604167 240.859375 -213.22395833 239.140625 -211.671875 237.421875 C-208.25694362 233.63525041 -204.85013474 229.84416383 -201.5 226 C-196.62856797 220.41020011 -191.6410485 214.92465102 -186.671875 209.421875 C-183.25694362 205.63525041 -179.85013474 201.84416383 -176.5 198 C-171.62856797 192.41020011 -166.6410485 186.92465102 -161.671875 181.421875 C-158.25694362 177.63525041 -154.85013474 173.84416383 -151.5 170 C-146.62856797 164.41020011 -141.6410485 158.92465102 -136.671875 153.421875 C-133.25694362 149.63525041 -129.85013474 145.84416383 -126.5 142 C-121.62856797 136.41020011 -116.6410485 130.92465102 -111.671875 125.421875 C-108.25694362 121.63525041 -104.85013474 117.84416383 -101.5 114 C-96.62856797 108.41020011 -91.6410485 102.92465102 -86.671875 97.421875 C-83.25694362 93.63525041 -79.85013474 89.84416383 -76.5 86 C-71.62856797 80.41020011 -66.6410485 74.92465102 -61.671875 69.421875 C-58.27655062 65.6569915 -54.88941658 61.88806449 -51.5625 58.0625 C-47.91062947 53.86835635 -44.15733816 49.76905708 -40.41015625 45.66015625 C-37.82761116 42.80972966 -35.29344897 39.92174108 -32.76953125 37.01953125 C-28.46130252 32.10263444 -24.05313844 27.27360968 -19.671875 22.421875 C-13.01034683 15.03528253 -6.46016662 7.56312189 0 0 Z " fill="#0276BA" transform="translate(326,224)"/>
<path d="M0 0 C3.70492515 2.05829175 4.78327144 3.3115681 6.0625 7.375 C5.95292944 13.73009249 1.56816048 17.68192708 -2.75074768 21.99798584 C-3.2134901 22.46314267 -3.67623252 22.92829951 -4.15299743 23.407552 C-5.69047921 24.95062805 -7.23494634 26.48650741 -8.77954102 28.02246094 C-9.88897189 29.13296573 -10.99796944 30.24390357 -12.10656738 31.35523987 C-15.10807321 34.36157834 -18.11576768 37.36165349 -21.1247685 40.36048794 C-24.27502609 43.50194307 -27.41999146 46.64868825 -30.56565857 49.79473877 C-35.8456253 55.07377011 -41.12944434 60.34892032 -46.41577148 65.62158203 C-52.52896617 71.71903221 -58.63689927 77.82171249 -64.74185997 83.92740607 C-70.61699041 89.80314655 -76.49497172 95.6760259 -82.37455559 101.54730988 C-84.87646494 104.04568744 -87.37752224 106.54491343 -89.87793159 109.04479218 C-92.81976349 111.98562049 -95.76412931 114.92388839 -98.71048737 117.86018181 C-99.79212204 118.93889311 -100.87291021 120.01845396 -101.95279503 121.09891701 C-103.42497627 122.57158825 -104.90018936 124.04115321 -106.37623596 125.50994873 C-107.20157617 126.33361309 -108.02691637 127.15727745 -108.87726688 128.00590134 C-112.02725742 130.96500716 -113.55430775 131.95755312 -117.9375 132.375 C-120.85144391 132.27840517 -121.92600406 132.04439756 -124.5 130.5 C-126.19544456 127.67425906 -126.75415488 125.41961093 -126.56579208 122.1143589 C-125.88315994 119.56336997 -124.91434055 118.36440198 -123.13482666 116.42025757 C-122.49656197 115.72277782 -121.85829727 115.02529808 -121.20069122 114.30668259 C-116.91594794 109.81557424 -112.5488707 105.41014537 -108.15527344 101.02587891 C-107.07517209 99.94441989 -105.99528302 98.86274884 -104.91558838 97.78088379 C-102.00499553 94.86576286 -99.09128587 91.95377662 -96.17683697 89.04251146 C-93.12047723 85.98869609 -90.06657228 82.93242737 -87.01226807 79.8765564 C-81.88985736 74.75233143 -76.76535274 69.63020761 -71.63964844 64.50927734 C-65.71360265 58.58868729 -59.79118744 52.66448384 -53.87061667 46.73841918 C-48.77931704 41.64258456 -43.68607512 36.5486974 -38.59119821 31.45643938 C-35.55135685 28.4181568 -32.51219474 25.37920306 -29.47478485 22.33848953 C-26.62391995 19.48473984 -23.77062728 16.63344016 -20.91542816 13.7840271 C-19.867648 12.73757063 -18.82072056 11.69025957 -17.77470398 10.64204025 C-16.34867454 9.21328445 -14.91926854 7.78790111 -13.48968506 6.36270142 C-12.69036434 5.56375772 -11.89104362 4.76481403 -11.06750107 3.94165993 C-7.32582833 0.42772896 -5.10282735 -0.61233928 0 0 Z " fill="#ECF2F4" transform="translate(279,227)"/>
<path d="M0 0 C3.5549616 2.78869779 5.38366246 4.66726615 6.8984375 8.984375 C6.58305357 13.32090409 5.60136408 15.24180023 2.6484375 18.421875 C-0.98550667 19.76485437 -2.64602278 19.71329358 -6.2265625 18.234375 C-7.89052179 17.26927861 -9.55185747 16.29897639 -11.19140625 15.29296875 C-15.75741592 12.6980286 -19.02292767 11.91262761 -24.2421875 12.8125 C-28.58421532 14.06686359 -31.40678179 16.21646513 -34.1640625 19.734375 C-36.20473827 24.35274648 -36.58366654 28.07567155 -35.7265625 33.046875 C-33.61695617 38.22499963 -30.85482298 40.57097284 -26.0390625 43.296875 C-21.70778115 44.61828287 -18.66936508 44.74095929 -14.3515625 43.421875 C-11.11395116 41.56937496 -11.11395116 41.56937496 -8.3515625 39.421875 C-5.54012554 37.51735319 -4.35151202 37.421875 -0.8515625 37.421875 C2.6484375 38.421875 2.6484375 38.421875 5.1484375 41.046875 C7.0216617 45.26162944 7.13131012 47.05130307 5.6484375 51.421875 C0.40754961 58.30893921 -8.7494173 61.77347954 -17.0390625 62.94140625 C-26.20654701 63.34530157 -32.70190212 61.41379839 -40.3515625 56.421875 C-41.03992187 55.98875 -41.72828125 55.555625 -42.4375 55.109375 C-48.78246984 50.45454996 -51.92281382 42.70812103 -54.3515625 35.421875 C-54.99310917 26.65056472 -55.03028512 19.10602708 -50.3515625 11.421875 C-49.7740625 10.390625 -49.1965625 9.359375 -48.6015625 8.296875 C-36.75134856 -6.84506503 -16.25998812 -10.91201861 0 0 Z " fill="#000102" transform="translate(96.3515625,407.578125)"/>
<path d="M0 0 C3.54164915 -0.0292067 7.08326697 -0.04686814 10.625 -0.0625 C11.62402344 -0.07087891 12.62304688 -0.07925781 13.65234375 -0.08789062 C18.55020275 -0.1041087 23.18656199 -0.04318537 28 1 C26.72617955 3.79243078 25.41635162 5.82959709 23.23609924 7.98422241 C22.67393707 8.54479843 22.1117749 9.10537445 21.53257751 9.68293762 C20.91798172 10.28562973 20.30338593 10.88832184 19.67016602 11.50927734 C19.02120361 12.15371292 18.37224121 12.7981485 17.70361328 13.46211243 C16.29528678 14.85948889 14.88469328 16.25458345 13.47210884 17.64765549 C11.23551349 19.85408217 9.00566587 22.06712507 6.77757263 24.28213501 C0.44179989 30.57816153 -5.90654147 36.86146079 -12.25805664 43.14160156 C-16.14403997 46.98483513 -20.02265949 50.83537885 -23.89705086 54.69029617 C-25.37371335 56.15640076 -26.85328289 57.61958344 -28.33581352 59.07975388 C-30.41099558 61.12368906 -32.4767624 63.17672499 -34.54077148 65.23193359 C-35.45962883 66.12989906 -35.45962883 66.12989906 -36.39704895 67.04600525 C-41.40091418 72.06079672 -44.35072454 76.52580551 -44.4675293 83.86181641 C-44.45266479 85.01302979 -44.45266479 85.01302979 -44.4375 86.1875 C-44.43210205 87.01685059 -44.4267041 87.84620117 -44.42114258 88.70068359 C-44.21648296 97.88528969 -43.20442465 107.00189943 -42.1875 116.125 C-42.10490936 116.88452972 -42.02231873 117.64405945 -41.93722534 118.42660522 C-40.43295389 133.98940545 -40.43295389 133.98940545 -34 148 C-46.75756121 147.58713394 -46.75756121 147.58713394 -52 143 C-53.11375 142.071875 -53.11375 142.071875 -54.25 141.125 C-57.9359847 136.64916143 -58.43215442 130.99067644 -59.0703125 125.390625 C-59.15662933 124.67015488 -59.24294617 123.94968475 -59.33187866 123.2073822 C-59.60539446 120.88920098 -59.86697116 118.56995356 -60.125 116.25 C-60.21338135 115.4633194 -60.3017627 114.67663879 -60.39282227 113.86611938 C-63.93131637 82.02089319 -63.93131637 82.02089319 -58 74 C-55.89885642 71.66068423 -53.67490541 69.46159756 -51.42724609 67.26367188 C-50.45095497 66.29658043 -50.45095497 66.29658043 -49.4549408 65.30995178 C-48.0488164 63.91807575 -46.64045258 62.52845914 -45.23008347 61.1408844 C-42.99739266 58.9431125 -40.77198278 56.73820525 -38.54849243 54.53112793 C-32.22828435 48.25971462 -25.89688904 41.9996859 -19.55664062 35.74853516 C-15.67266313 31.91814102 -11.79849795 28.07804665 -7.93019485 24.23182678 C-6.45637409 22.77041189 -4.97877038 21.31280174 -3.4973259 19.8591156 C-1.42699613 17.82725099 0.6306872 15.78333069 2.68603516 13.73632812 C3.29905991 13.14082657 3.91208466 12.54532501 4.54368591 11.93177795 C7.9534569 8.50614543 9.86332984 5.84235126 11 1 C7.37 1 3.74 1 0 1 C0 0.67 0 0.34 0 0 Z " fill="#0274B8" transform="translate(380,17)"/>
<path d="M0 0 C5.78219102 9.99618392 2.48583034 28.24276523 0.109375 39.09375 C-6.93673186 65.38841698 -22.6349883 89.63111362 -46.15625 103.94433594 C-55.19280963 109.11834068 -64.83791192 113.60304556 -75 116 C-72.70175848 113.37463651 -69.99675744 111.64522575 -67.06323242 109.79174805 C-43.47888446 94.83429849 -25.37044604 71.56532606 -19 44 C-18.03488549 39.2264336 -17.26031775 34.42705955 -16.578125 29.60546875 C-16.41751587 28.48060059 -16.41751587 28.48060059 -16.25366211 27.33300781 C-15.95985966 24.97472783 -15.95985966 24.97472783 -15.96704102 22.48730469 C-15.78689371 16.14272273 -14.15364803 13.16568442 -9.58007812 8.7890625 C-8.87302734 8.15742187 -8.16597656 7.52578125 -7.4375 6.875 C-6.72658203 6.2046875 -6.01566406 5.534375 -5.28320312 4.84375 C-3.54088228 3.20667001 -1.78130932 1.59439166 0 0 Z " fill="#0275B9" transform="translate(493,104)"/>
<path d="M0 0 C3.53639697 2.48300213 4.76364597 4.05458386 5.8125 8.25 C4.60361704 13.82945984 1.19192018 17.24410071 -3 21 C-5.93568056 22.81519179 -6.91313216 23.00155121 -10.5 22.9375 C-14 22 -14 22 -16.4375 19.8125 C-18.29975777 16.46043602 -18.40786109 14.7893141 -18 11 C-16.35546875 8.515625 -16.35546875 8.515625 -14.1875 6.25 C-13.47980469 5.49203125 -12.77210937 4.7340625 -12.04296875 3.953125 C-8.02284464 0.10979411 -5.51332304 -0.66540106 0 0 Z " fill="#EBF2F4" transform="translate(140,367)"/>
</svg>
